<svg id="mermaid-svg" width="100%" xmlns="http://www.w3.org/2000/svg" class="flowchart" style="max-width: 640.7217407226562px;" viewBox="0 0 640.7217407226562 359" role="graphics-document document" aria-roledescription="flowchart-v2" xmlns:xlink="http://www.w3.org/1999/xlink"><style xmlns="http://www.w3.org/1999/xhtml">@import url("https://cdnjs.cloudflare.com/ajax/libs/font-awesome/6.7.2/css/all.min.css");</style><style>#mermaid-svg{font-family:"trebuchet ms",verdana,arial,sans-serif;font-size:16px;fill:#333;}@keyframes edge-animation-frame{from{stroke-dashoffset:0;}}@keyframes dash{to{stroke-dashoffset:0;}}#mermaid-svg .edge-animation-slow{stroke-dasharray:9,5!important;stroke-dashoffset:900;animation:dash 50s linear infinite;stroke-linecap:round;}#mermaid-svg .edge-animation-fast{stroke-dasharray:9,5!important;stroke-dashoffset:900;animation:dash 20s linear infinite;stroke-linecap:round;}#mermaid-svg .error-icon{fill:#552222;}#mermaid-svg .error-text{fill:#552222;stroke:#552222;}#mermaid-svg .edge-thickness-normal{stroke-width:1px;}#mermaid-svg .edge-thickness-thick{stroke-width:3.5px;}#mermaid-svg .edge-pattern-solid{stroke-dasharray:0;}#mermaid-svg .edge-thickness-invisible{stroke-width:0;fill:none;}#mermaid-svg .edge-pattern-dashed{stroke-dasharray:3;}#mermaid-svg .edge-pattern-dotted{stroke-dasharray:2;}#mermaid-svg .marker{fill:#333333;stroke:#333333;}#mermaid-svg .marker.cross{stroke:#333333;}#mermaid-svg svg{font-family:"trebuchet ms",verdana,arial,sans-serif;font-size:16px;}#mermaid-svg p{margin:0;}#mermaid-svg .label{font-family:"trebuchet ms",verdana,arial,sans-serif;color:#333;}#mermaid-svg .cluster-label text{fill:#333;}#mermaid-svg .cluster-label span{color:#333;}#mermaid-svg .cluster-label span p{background-color:transparent;}#mermaid-svg .label text,#mermaid-svg span{fill:#333;color:#333;}#mermaid-svg .node rect,#mermaid-svg .node circle,#mermaid-svg .node ellipse,#mermaid-svg .node polygon,#mermaid-svg .node path{fill:#ECECFF;stroke:#9370DB;stroke-width:1px;}#mermaid-svg .rough-node .label text,#mermaid-svg .node .label text,#mermaid-svg .image-shape .label,#mermaid-svg .icon-shape .label{text-anchor:middle;}#mermaid-svg .node .katex path{fill:#000;stroke:#000;stroke-width:1px;}#mermaid-svg .rough-node .label,#mermaid-svg .node .label,#mermaid-svg .image-shape .label,#mermaid-svg .icon-shape .label{text-align:center;}#mermaid-svg .node.clickable{cursor:pointer;}#mermaid-svg .root .anchor path{fill:#333333!important;stroke-width:0;stroke:#333333;}#mermaid-svg .arrowheadPath{fill:#333333;}#mermaid-svg .edgePath .path{stroke:#333333;stroke-width:2.0px;}#mermaid-svg .flowchart-link{stroke:#333333;fill:none;}#mermaid-svg .edgeLabel{background-color:rgba(232,232,232, 0.8);text-align:center;}#mermaid-svg .edgeLabel p{background-color:rgba(232,232,232, 0.8);}#mermaid-svg .edgeLabel rect{opacity:0.5;background-color:rgba(232,232,232, 0.8);fill:rgba(232,232,232, 0.8);}#mermaid-svg .labelBkg{background-color:rgba(232, 232, 232, 0.5);}#mermaid-svg .cluster rect{fill:#ffffde;stroke:#aaaa33;stroke-width:1px;}#mermaid-svg .cluster text{fill:#333;}#mermaid-svg .cluster span{color:#333;}#mermaid-svg div.mermaidTooltip{position:absolute;text-align:center;max-width:200px;padding:2px;font-family:"trebuchet ms",verdana,arial,sans-serif;font-size:12px;background:hsl(80, 100%, 96.2745098039%);border:1px solid #aaaa33;border-radius:2px;pointer-events:none;z-index:100;}#mermaid-svg .flowchartTitleText{text-anchor:middle;font-size:18px;fill:#333;}#mermaid-svg rect.text{fill:none;stroke-width:0;}#mermaid-svg .icon-shape,#mermaid-svg .image-shape{background-color:rgba(232,232,232, 0.8);text-align:center;}#mermaid-svg .icon-shape p,#mermaid-svg .image-shape p{background-color:rgba(232,232,232, 0.8);padding:2px;}#mermaid-svg .icon-shape rect,#mermaid-svg .image-shape rect{opacity:0.5;background-color:rgba(232,232,232, 0.8);fill:rgba(232,232,232, 0.8);}#mermaid-svg .label-icon{display:inline-block;height:1em;overflow:visible;vertical-align:-0.125em;}#mermaid-svg .node .label-icon path{fill:currentColor;stroke:revert;stroke-width:revert;}#mermaid-svg :root{--mermaid-font-family:"trebuchet ms",verdana,arial,sans-serif;}</style><g><marker id="mermaid-svg_flowchart-v2-pointEnd" class="marker flowchart-v2" viewBox="0 0 10 10" refX="5" refY="5" markerUnits="userSpaceOnUse" markerWidth="8" markerHeight="8" orient="auto"><path d="M 0 0 L 10 5 L 0 10 z" class="arrowMarkerPath" style="stroke-width: 1; stroke-dasharray: 1, 0;"/></marker><marker id="mermaid-svg_flowchart-v2-pointStart" class="marker flowchart-v2" viewBox="0 0 10 10" refX="4.5" refY="5" markerUnits="userSpaceOnUse" markerWidth="8" markerHeight="8" orient="auto"><path d="M 0 5 L 10 10 L 10 0 z" class="arrowMarkerPath" style="stroke-width: 1; stroke-dasharray: 1, 0;"/></marker><marker id="mermaid-svg_flowchart-v2-circleEnd" class="marker flowchart-v2" viewBox="0 0 10 10" refX="11" refY="5" markerUnits="userSpaceOnUse" markerWidth="11" markerHeight="11" orient="auto"><circle cx="5" cy="5" r="5" class="arrowMarkerPath" style="stroke-width: 1; stroke-dasharray: 1, 0;"/></marker><marker id="mermaid-svg_flowchart-v2-circleStart" class="marker flowchart-v2" viewBox="0 0 10 10" refX="-1" refY="5" markerUnits="userSpaceOnUse" markerWidth="11" markerHeight="11" orient="auto"><circle cx="5" cy="5" r="5" class="arrowMarkerPath" style="stroke-width: 1; stroke-dasharray: 1, 0;"/></marker><marker id="mermaid-svg_flowchart-v2-crossEnd" class="marker cross flowchart-v2" viewBox="0 0 11 11" refX="12" refY="5.2" markerUnits="userSpaceOnUse" markerWidth="11" markerHeight="11" orient="auto"><path d="M 1,1 l 9,9 M 10,1 l -9,9" class="arrowMarkerPath" style="stroke-width: 2; stroke-dasharray: 1, 0;"/></marker><marker id="mermaid-svg_flowchart-v2-crossStart" class="marker cross flowchart-v2" viewBox="0 0 11 11" refX="-1" refY="5.2" markerUnits="userSpaceOnUse" markerWidth="11" markerHeight="11" orient="auto"><path d="M 1,1 l 9,9 M 10,1 l -9,9" class="arrowMarkerPath" style="stroke-width: 2; stroke-dasharray: 1, 0;"/></marker><g class="root"><g class="clusters"/><g class="edgePaths"><path d="M360.516,47.5L360.432,53.583C360.349,59.667,360.182,71.833,360.099,83.417C360.016,95,360.016,106,360.016,111.5L360.016,117" id="L_User_ISP_0" class=" edge-thickness-normal edge-pattern-solid edge-thickness-normal edge-pattern-solid flowchart-link" style=";" data-edge="true" data-et="edge" data-id="L_User_ISP_0" data-points="W3sieCI6MzYwLjUxNTYyNSwieSI6NDcuNX0seyJ4IjozNjAuMDE1NjI1LCJ5Ijo4NH0seyJ4IjozNjAuMDE1NjI1LCJ5IjoxMjF9XQ==" marker-end="url(#mermaid-svg_flowchart-v2-pointEnd)"/><path d="M281.142,175L257.285,183.167C233.428,191.333,185.714,207.667,161.857,223.333C138,239,138,254,138,261.5L138,269" id="L_ISP_Google_0" class=" edge-thickness-normal edge-pattern-solid edge-thickness-normal edge-pattern-solid flowchart-link" style=";" data-edge="true" data-et="edge" data-id="L_ISP_Google_0" data-points="W3sieCI6MjgxLjE0MTY1Mjk2MDUyNjMsInkiOjE3NX0seyJ4IjoxMzgsInkiOjIyNH0seyJ4IjoxMzgsInkiOjI3M31d" marker-end="url(#mermaid-svg_flowchart-v2-pointEnd)"/><path d="M485.97,285L497.106,274.833C508.241,264.667,530.511,244.333,521.552,226.245C512.594,208.156,472.407,192.311,452.313,184.389L432.219,176.467" id="L_Attacker_ISP_0" class=" edge-thickness-normal edge-pattern-dotted edge-thickness-normal edge-pattern-solid flowchart-link" style=";" data-edge="true" data-et="edge" data-id="L_Attacker_ISP_0" data-points="W3sieCI6NDg1Ljk3MDQzNjc4OTc3Mjc1LCJ5IjoyODV9LHsieCI6NTUyLjc4MTI1LCJ5IjoyMjR9LHsieCI6NDI4LjQ5ODE0OTY3MTA1MjYsInkiOjE3NX1d" marker-end="url(#mermaid-svg_flowchart-v2-pointEnd)"/><path d="M360.016,175L360.016,183.167C360.016,191.333,360.016,207.667,370.658,225.55C381.301,243.434,402.587,262.869,413.23,272.586L423.872,282.303" id="L_ISP_Attacker_0" class=" edge-thickness-normal edge-pattern-dotted edge-thickness-normal edge-pattern-solid flowchart-link" style=";" data-edge="true" data-et="edge" data-id="L_ISP_Attacker_0" data-points="W3sieCI6MzYwLjAxNTYyNSwieSI6MTc1fSx7IngiOjM2MC4wMTU2MjUsInkiOjIyNH0seyJ4Ijo0MjYuODI2NDM4MjEwMjI3MjUsInkiOjI4NX1d" marker-end="url(#mermaid-svg_flowchart-v2-pointEnd)"/></g><g class="edgeLabels"><g class="edgeLabel" transform="translate(360.015625, 84)"><g class="label" data-id="L_User_ISP_0" transform="translate(-62.1171875, -12)"><foreignObject width="124.234375" height="24"><div xmlns="http://www.w3.org/1999/xhtml" class="labelBkg" style="display: table-cell; white-space: nowrap; line-height: 1.5; max-width: 200px; text-align: center;"><span class="edgeLabel "><p>Data to IP 8.8.8.8</p></span></div></foreignObject></g></g><g class="edgeLabel" transform="translate(138, 224)"><g class="label" data-id="L_ISP_Google_0" transform="translate(-79.453125, -12)"><foreignObject width="158.90625" height="24"><div xmlns="http://www.w3.org/1999/xhtml" class="labelBkg" style="display: table-cell; white-space: nowrap; line-height: 1.5; max-width: 200px; text-align: center;"><span class="edgeLabel "><p>Legitimate BGP Route</p></span></div></foreignObject></g></g><g class="edgeLabel" transform="translate(532.72175, 216.09132)"><g class="label" data-id="L_Attacker_ISP_0" transform="translate(-100, -24)"><foreignObject width="200" height="48"><div xmlns="http://www.w3.org/1999/xhtml" class="labelBkg" style="display: table; white-space: break-spaces; line-height: 1.5; max-width: 200px; text-align: center; width: 200px;"><span class="edgeLabel "><p>Fake BGP Announcement: 8.8.8.0/24 is here!</p></span></div></foreignObject></g></g><g class="edgeLabel" transform="translate(360.015625, 224)"><g class="label" data-id="L_ISP_Attacker_0" transform="translate(-72.765625, -12)"><foreignObject width="145.53125" height="24"><div xmlns="http://www.w3.org/1999/xhtml" class="labelBkg" style="display: table-cell; white-space: nowrap; line-height: 1.5; max-width: 200px; text-align: center;"><span class="edgeLabel "><p>Diverted Traffic Flow</p></span></div></foreignObject></g></g></g><g class="nodes"><g class="node default  " id="flowchart-User-0" transform="translate(360.015625, 27.5)"><g class="basic label-container outer-path"><path d="M-9.765625 -19.5 C-4.9403760817532865 -19.5, -0.11512716350657293 -19.5, 9.765625 -19.5 C9.765625 -19.5, 9.765624999999998 -19.5, 9.765624999999998 -19.5 C10.044670518914746 -19.491051553337556, 10.323716037829492 -19.482103106675115, 11.0149942896239 -19.45993515863156 C11.327322592688981 -19.429805222864612, 11.63965089575406 -19.399675287097665, 12.259229652847864 -19.3399052695533 C12.536838040533912 -19.29502369831742, 12.81444642821996 -19.25014212708154, 13.493218259676757 -19.140403561325776 C13.897661278769483 -19.04809208145521, 14.30210429786221 -18.955780601584642, 14.71188938623539 -18.862249829261074 C15.103843668953857 -18.74591985556025, 15.495797951672325 -18.62958988185942, 15.910235251460602 -18.50658706670804 C16.29200436444294 -18.366092504095544, 16.67377347742528 -18.22559794148305, 17.083331595147794 -18.074876768247425 C17.409191938790432 -17.930628060420478, 17.735052282433074 -17.78637935259353, 18.22635791279238 -17.568892924097174 C18.656459204787605 -17.34450935555629, 19.08656049678283 -17.120125787015407, 19.334617264076783 -16.990714730406097 C19.614468869295738 -16.821067042731787, 19.894320474514693 -16.651419355057477, 20.403555573605697 -16.342718045390892 C20.757523855118084 -16.095805095247794, 21.111492136630474 -15.848892145104696, 21.428780344578712 -15.627565626425154 C21.752742899998044 -15.369214109483895, 22.076705455417375 -15.110862592542638, 22.40607870850187 -14.848196188198123 C22.69674403644086 -14.584221627947079, 22.987409364379854 -14.320247067696032, 23.331434736767985 -14.007812326905688 C23.667651026635962 -13.660641403746242, 24.003867316503936 -13.313470480586796, 24.201045942968648 -13.10986736009568 C24.502138597103993 -12.75618679589094, 24.803231251239335 -12.4025062316862, 25.011338908126582 -12.158051136245305 C25.251745057423584 -11.83592879763808, 25.492151206720585 -11.513806459030853, 25.758983964640635 -11.156274872382312 C25.920419828161183 -10.908266034415597, 26.081855691681735 -10.660257196448882, 26.440908878604247 -10.108655082055241 C26.57533498380521 -9.869967920151737, 26.709761089006168 -9.631280758248232, 27.0543114742735 -9.019496659696287 C27.26660017493418 -8.578674630523848, 27.47888887559486 -8.13785260135141, 27.59667114880834 -7.893275190886684 C27.770556053225313 -7.4637761151408375, 27.94444095764229 -7.034277039394991, 28.065759229970325 -6.734618561215508 C28.217582867228852 -6.27734995560438, 28.36940650448738 -5.820081349993252, 28.45964813421488 -5.548287939305138 C28.538274636020333 -5.248451010979511, 28.616901137825785 -4.948614082653883, 28.77671928754556 -4.339158212148133 C28.847579936976608 -3.9753037537232725, 28.91844058640765 -3.611449295298412, 29.015669776581777 -3.1121979531509023 C29.072545036918775 -2.6710846652676503, 29.129420297255773 -2.2299713773843983, 29.175517702509367 -1.872449005199798 C29.197972649357784 -1.5226950827288386, 29.2204275962062 -1.1729411602578792, 29.255606215913414 -0.6250057626472757 C29.255606215913414 -0.1895025492759949, 29.255606215913414 0.24600066409528587, 29.255606215913414 0.625005762647271 C29.23523322300535 0.942331571974268, 29.214860230097287 1.259657381301265, 29.175517702509367 1.8724490051997846 C29.12143106391562 2.291934293518033, 29.067344425321874 2.7114195818362816, 29.015669776581777 3.1121979531508885 C28.938874915080877 3.50652333635828, 28.86208005357998 3.900848719565672, 28.77671928754556 4.339158212148129 C28.70761177049043 4.602695126066702, 28.638504253435297 4.866232039985274, 28.459648134214884 5.548287939305125 C28.316630188766837 5.979035204179543, 28.173612243318793 6.409782469053962, 28.06575922997033 6.734618561215495 C27.901561402047765 7.140190370733274, 27.737363574125197 7.545762180251053, 27.596671148808344 7.893275190886679 C27.469219352400884 8.157931573158349, 27.341767555993428 8.422587955430018, 27.054311474273504 9.019496659696284 C26.823942588151525 9.428539944385113, 26.593573702029545 9.837583229073942, 26.44090887860425 10.108655082055236 C26.227067133387365 10.437173427257155, 26.013225388170483 10.765691772459075, 25.75898396464064 11.156274872382301 C25.571331599843866 11.40771194572786, 25.383679235047094 11.659149019073418, 25.011338908126582 12.158051136245302 C24.78040653818999 12.429317438396923, 24.549474168253397 12.700583740548547, 24.20104594296866 13.10986736009567 C24.012069387066745 13.30500116932818, 23.82309283116483 13.500134978560693, 23.33143473676799 14.007812326905684 C23.065725556559276 14.249122374091579, 22.80001637635056 14.490432421277472, 22.406078708501887 14.848196188198111 C22.150985748961762 15.051626035122617, 21.895892789421637 15.255055882047122, 21.428780344578715 15.627565626425152 C21.02474411465257 15.909403809975135, 20.620707884726425 16.191241993525118, 20.403555573605708 16.34271804539089 C20.10248753210163 16.52522726142286, 19.801419490597553 16.707736477454826, 19.334617264076787 16.990714730406093 C18.950326232828125 17.191199115258367, 18.566035201579467 17.391683500110638, 18.226357912792388 17.56889292409717 C17.894089089048965 17.715978475963926, 17.561820265305542 17.86306402783068, 17.083331595147804 18.07487676824742 C16.71715803462286 18.20963202339189, 16.35098447409791 18.344387278536356, 15.910235251460616 18.506587066708033 C15.624890280618342 18.591275956247703, 15.339545309776065 18.675964845787377, 14.711889386235413 18.86224982926107 C14.382493882618006 18.9374322034552, 14.0530983790006 19.01261457764933, 13.493218259676766 19.140403561325773 C13.216050578616063 19.1852138825322, 12.938882897555361 19.230024203738623, 12.259229652847878 19.3399052695533 C11.807359320664808 19.383496657045416, 11.355488988481738 19.42708804453753, 11.0149942896239 19.45993515863156 C10.542870250805885 19.47507525762276, 10.070746211987869 19.49021535661396, 9.765625000000004 19.5 C9.765625000000002 19.5, 9.765625000000002 19.5, 9.765625 19.5 C4.073290790846027 19.5, -1.619043418307946 19.5, -9.765624999999996 19.5 C-10.183047244631531 19.48661408107778, -10.600469489263066 19.473228162155554, -11.014994289623893 19.45993515863156 C-11.391015606391903 19.423660834434745, -11.767036923159914 19.387386510237935, -12.259229652847871 19.3399052695533 C-12.56162617472016 19.29101614501704, -12.864022696592452 19.242127020480776, -13.493218259676759 19.140403561325773 C-13.755853004108609 19.08045889476108, -14.018487748540457 19.020514228196383, -14.711889386235388 18.862249829261074 C-15.187237707694756 18.72116894260619, -15.662586029154124 18.580088055951308, -15.910235251460593 18.506587066708043 C-16.163725543519643 18.41330029599174, -16.417215835578695 18.320013525275435, -17.083331595147797 18.074876768247425 C-17.51392339999666 17.884266549292896, -17.944515204845526 17.693656330338367, -18.22635791279238 17.568892924097174 C-18.64659351908566 17.349656277467723, -19.066829125378938 17.130419630838272, -19.33461726407678 16.990714730406097 C-19.557050145094838 16.85587461077225, -19.779483026112892 16.7210344911384, -20.403555573605686 16.3427180453909 C-20.78051653618548 16.0797663962723, -21.157477498765275 15.816814747153703, -21.428780344578712 15.627565626425156 C-21.80498071953335 15.32755583851125, -22.181181094487986 15.027546050597342, -22.40607870850187 14.848196188198125 C-22.742602234084707 14.54257442618836, -23.079125759667544 14.236952664178592, -23.331434736767974 14.007812326905697 C-23.622447535207154 13.70731771992215, -23.913460333646334 13.406823112938604, -24.201045942968655 13.109867360095677 C-24.468621272485873 12.795558152577183, -24.736196602003094 12.481248945058688, -25.01133890812658 12.158051136245307 C-25.303606961068187 11.766438571470927, -25.5958750140098 11.374826006696544, -25.758983964640635 11.156274872382316 C-25.899333827373727 10.940659794009154, -26.03968369010682 10.72504471563599, -26.440908878604244 10.108655082055249 C-26.67130865844556 9.699556942439406, -26.90170843828688 9.290458802823562, -27.0543114742735 9.019496659696289 C-27.164170708275208 8.791371609680699, -27.274029942276915 8.563246559665108, -27.59667114880834 7.893275190886686 C-27.71306830480276 7.605771965194548, -27.829465460797184 7.31826873950241, -28.065759229970325 6.73461856121551 C-28.2177391149605 6.27687936233135, -28.369718999950678 5.819140163447189, -28.45964813421488 5.5482879393051325 C-28.57269872837001 5.117177027354175, -28.685749322525144 4.686066115403217, -28.776719287545557 4.339158212148136 C-28.862891596981054 3.896681615720912, -28.94906390641655 3.4542050192936884, -29.015669776581777 3.112197953150904 C-29.06547354105058 2.725929790796566, -29.11527730551938 2.3396616284422276, -29.175517702509364 1.872449005199809 C-29.20739940998845 1.3758656767619277, -29.23928111746754 0.8792823483240463, -29.255606215913414 0.6250057626472781 C-29.255606215913414 0.3181688154484865, -29.255606215913414 0.011331868249694899, -29.255606215913414 -0.6250057626472687 C-29.232165573798476 -0.9901126845331965, -29.208724931683538 -1.3552196064191242, -29.175517702509367 -1.8724490051997822 C-29.1342768540086 -2.192304882245043, -29.093036005507837 -2.5121607592903037, -29.015669776581777 -3.112197953150895 C-28.9355834756956 -3.523424181955716, -28.85549717480943 -3.934650410760537, -28.77671928754556 -4.339158212148126 C-28.693023115870393 -4.6583279888958025, -28.609326944195224 -4.977497765643479, -28.459648134214884 -5.548287939305123 C-28.322815161857367 -5.960407050672506, -28.18598218949985 -6.372526162039889, -28.065759229970332 -6.734618561215485 C-27.911297673693362 -7.116141591530636, -27.75683611741639 -7.497664621845786, -27.596671148808344 -7.893275190886676 C-27.461453830369127 -8.174056845812844, -27.326236511929913 -8.45483850073901, -27.054311474273504 -9.019496659696282 C-26.833448053083245 -9.411662028866143, -26.612584631892986 -9.803827398036004, -26.440908878604247 -10.108655082055243 C-26.249881766310676 -10.402124024500216, -26.0588546540171 -10.695592966945188, -25.75898396464064 -11.156274872382308 C-25.508073434471687 -11.492472124389165, -25.257162904302735 -11.828669376396023, -25.011338908126586 -12.158051136245302 C-24.816166530560373 -12.387311716557466, -24.62099415299416 -12.61657229686963, -24.201045942968662 -13.10986736009567 C-23.950199826335037 -13.368886570369074, -23.699353709701413 -13.627905780642479, -23.331434736767996 -14.007812326905677 C-23.001629978178443 -14.307332282500974, -22.671825219588893 -14.606852238096272, -22.406078708501887 -14.848196188198107 C-22.048138767302234 -15.133643766122963, -21.69019882610258 -15.419091344047821, -21.42878034457872 -15.627565626425149 C-21.031832462385488 -15.90445928544628, -20.634884580192253 -16.18135294446741, -20.40355557360571 -16.342718045390885 C-20.01359864959026 -16.579112224370306, -19.623641725574814 -16.815506403349723, -19.33461726407679 -16.99071473040609 C-19.008610624616065 -17.160792185395533, -18.68260398515534 -17.330869640384975, -18.226357912792388 -17.56889292409717 C-17.848089672332577 -17.736341053220055, -17.469821431872766 -17.90378918234294, -17.083331595147804 -18.07487676824742 C-16.703830852098736 -18.21453654975589, -16.32433010904967 -18.354196331264358, -15.910235251460618 -18.506587066708033 C-15.593527052234966 -18.600584397802944, -15.276818853009317 -18.694581728897855, -14.711889386235413 -18.862249829261067 C-14.351570429482233 -18.944490279839048, -13.991251472729054 -19.02673073041703, -13.493218259676768 -19.140403561325773 C-13.13761978047066 -19.197893965736423, -12.78202130126455 -19.255384370147077, -12.25922965284788 -19.3399052695533 C-11.783450005348481 -19.385803159938824, -11.30767035784908 -19.431701050324346, -11.014994289623903 -19.45993515863156 C-10.623876078045413 -19.472477558411466, -10.232757866466924 -19.485019958191373, -9.765625000000005 -19.5 C-9.765625000000004 -19.5, -9.765625000000002 -19.5, -9.765625 -19.5" stroke="none" stroke-width="0" fill="#ECECFF" style=""/><path d="M-9.765625 -19.5 C-3.3181720904253726 -19.5, 3.1292808191492547 -19.5, 9.765625 -19.5 M-9.765625 -19.5 C-4.307743406042679 -19.5, 1.1501381879146422 -19.5, 9.765625 -19.5 M9.765625 -19.5 C9.765625 -19.5, 9.765624999999998 -19.5, 9.765624999999998 -19.5 M9.765625 -19.5 C9.765625 -19.5, 9.765624999999998 -19.5, 9.765624999999998 -19.5 M9.765624999999998 -19.5 C10.111813243374456 -19.48889841684952, 10.458001486748913 -19.47779683369904, 11.0149942896239 -19.45993515863156 M9.765624999999998 -19.5 C10.187884624977924 -19.48645895570546, 10.610144249955848 -19.472917911410917, 11.0149942896239 -19.45993515863156 M11.0149942896239 -19.45993515863156 C11.423717010503642 -19.42050616930928, 11.832439731383383 -19.381077179987, 12.259229652847864 -19.3399052695533 M11.0149942896239 -19.45993515863156 C11.26924730333526 -19.435407676182813, 11.523500317046619 -19.410880193734062, 12.259229652847864 -19.3399052695533 M12.259229652847864 -19.3399052695533 C12.551458862850374 -19.292659917151465, 12.843688072852887 -19.24541456474963, 13.493218259676757 -19.140403561325776 M12.259229652847864 -19.3399052695533 C12.741989168436486 -19.26185645492889, 13.224748684025107 -19.18380764030448, 13.493218259676757 -19.140403561325776 M13.493218259676757 -19.140403561325776 C13.80104015612139 -19.070145222187886, 14.108862052566023 -18.99988688305, 14.71188938623539 -18.862249829261074 M13.493218259676757 -19.140403561325776 C13.877486856722824 -19.052696761636952, 14.26175545376889 -18.96498996194813, 14.71188938623539 -18.862249829261074 M14.71188938623539 -18.862249829261074 C15.009771870200677 -18.773839871637243, 15.307654354165962 -18.68542991401341, 15.910235251460602 -18.50658706670804 M14.71188938623539 -18.862249829261074 C15.000947259581555 -18.776458969747672, 15.29000513292772 -18.69066811023427, 15.910235251460602 -18.50658706670804 M15.910235251460602 -18.50658706670804 C16.25358226974142 -18.380232190115656, 16.596929288022235 -18.25387731352327, 17.083331595147794 -18.074876768247425 M15.910235251460602 -18.50658706670804 C16.3574291977333 -18.342015560664162, 16.804623144005998 -18.177444054620285, 17.083331595147794 -18.074876768247425 M17.083331595147794 -18.074876768247425 C17.368361974995345 -17.94870227421472, 17.653392354842897 -17.822527780182018, 18.22635791279238 -17.568892924097174 M17.083331595147794 -18.074876768247425 C17.36211426482907 -17.951467950173594, 17.640896934510348 -17.82805913209976, 18.22635791279238 -17.568892924097174 M18.22635791279238 -17.568892924097174 C18.608397397527277 -17.36958316961895, 18.990436882262177 -17.17027341514072, 19.334617264076783 -16.990714730406097 M18.22635791279238 -17.568892924097174 C18.664577718658716 -17.34027393206989, 19.102797524525048 -17.111654940042605, 19.334617264076783 -16.990714730406097 M19.334617264076783 -16.990714730406097 C19.574819966389338 -16.845102440676463, 19.815022668701896 -16.699490150946826, 20.403555573605697 -16.342718045390892 M19.334617264076783 -16.990714730406097 C19.647421561401035 -16.80109092712604, 19.96022585872529 -16.611467123845983, 20.403555573605697 -16.342718045390892 M20.403555573605697 -16.342718045390892 C20.644814790029606 -16.174426059956726, 20.886074006453516 -16.00613407452256, 21.428780344578712 -15.627565626425154 M20.403555573605697 -16.342718045390892 C20.71003440566299 -16.128931679402534, 21.01651323772029 -15.915145313414174, 21.428780344578712 -15.627565626425154 M21.428780344578712 -15.627565626425154 C21.799322416637178 -15.332068184497182, 22.169864488695644 -15.036570742569207, 22.40607870850187 -14.848196188198123 M21.428780344578712 -15.627565626425154 C21.75476437569249 -15.367602036411302, 22.08074840680627 -15.10763844639745, 22.40607870850187 -14.848196188198123 M22.40607870850187 -14.848196188198123 C22.744322114335702 -14.541012476449941, 23.08256552016954 -14.233828764701759, 23.331434736767985 -14.007812326905688 M22.40607870850187 -14.848196188198123 C22.64494914916155 -14.631260374156527, 22.883819589821233 -14.41432456011493, 23.331434736767985 -14.007812326905688 M23.331434736767985 -14.007812326905688 C23.611259054367633 -13.718870744980316, 23.891083371967284 -13.429929163054947, 24.201045942968648 -13.10986736009568 M23.331434736767985 -14.007812326905688 C23.54249986879619 -13.789870249316955, 23.753565000824395 -13.571928171728223, 24.201045942968648 -13.10986736009568 M24.201045942968648 -13.10986736009568 C24.523236965961562 -12.731403451299641, 24.845427988954476 -12.352939542503602, 25.011338908126582 -12.158051136245305 M24.201045942968648 -13.10986736009568 C24.50177880500902 -12.756609428158445, 24.80251166704939 -12.403351496221209, 25.011338908126582 -12.158051136245305 M25.011338908126582 -12.158051136245305 C25.237544072246763 -11.854956824038656, 25.46374923636694 -11.551862511832006, 25.758983964640635 -11.156274872382312 M25.011338908126582 -12.158051136245305 C25.249944855740697 -11.838340903891398, 25.488550803354812 -11.518630671537492, 25.758983964640635 -11.156274872382312 M25.758983964640635 -11.156274872382312 C25.997797912272805 -10.789392518295237, 26.23661185990498 -10.422510164208164, 26.440908878604247 -10.108655082055241 M25.758983964640635 -11.156274872382312 C25.94858227580398 -10.8650009521602, 26.13818058696732 -10.573727031938088, 26.440908878604247 -10.108655082055241 M26.440908878604247 -10.108655082055241 C26.605741892921134 -9.815977373982982, 26.77057490723802 -9.523299665910724, 27.0543114742735 -9.019496659696287 M26.440908878604247 -10.108655082055241 C26.67853146699769 -9.686732114466425, 26.916154055391136 -9.264809146877608, 27.0543114742735 -9.019496659696287 M27.0543114742735 -9.019496659696287 C27.25153446745032 -8.609958894468582, 27.44875746062714 -8.200421129240876, 27.59667114880834 -7.893275190886684 M27.0543114742735 -9.019496659696287 C27.180274634855028 -8.757931461568866, 27.30623779543656 -8.496366263441445, 27.59667114880834 -7.893275190886684 M27.59667114880834 -7.893275190886684 C27.761902175528384 -7.485151360363601, 27.927133202248424 -7.077027529840518, 28.065759229970325 -6.734618561215508 M27.59667114880834 -7.893275190886684 C27.748304054495648 -7.518738982216241, 27.899936960182956 -7.144202773545797, 28.065759229970325 -6.734618561215508 M28.065759229970325 -6.734618561215508 C28.19925282163423 -6.332557132439233, 28.332746413298132 -5.930495703662958, 28.45964813421488 -5.548287939305138 M28.065759229970325 -6.734618561215508 C28.171965251657284 -6.414742945525946, 28.27817127334424 -6.094867329836385, 28.45964813421488 -5.548287939305138 M28.45964813421488 -5.548287939305138 C28.558386168229436 -5.171757022272995, 28.657124202243995 -4.795226105240853, 28.77671928754556 -4.339158212148133 M28.45964813421488 -5.548287939305138 C28.550946728810192 -5.20012682905201, 28.642245323405508 -4.851965718798883, 28.77671928754556 -4.339158212148133 M28.77671928754556 -4.339158212148133 C28.840753201582046 -4.010357597143299, 28.904787115618532 -3.681556982138466, 29.015669776581777 -3.1121979531509023 M28.77671928754556 -4.339158212148133 C28.852241671206095 -3.9513667337127276, 28.92776405486663 -3.5635752552773217, 29.015669776581777 -3.1121979531509023 M29.015669776581777 -3.1121979531509023 C29.069312308248943 -2.6961570704563833, 29.12295483991611 -2.2801161877618643, 29.175517702509367 -1.872449005199798 M29.015669776581777 -3.1121979531509023 C29.04832910779091 -2.8588986296072796, 29.080988439000045 -2.605599306063657, 29.175517702509367 -1.872449005199798 M29.175517702509367 -1.872449005199798 C29.205613558917637 -1.4036817487029054, 29.23570941532591 -0.9349144922060129, 29.255606215913414 -0.6250057626472757 M29.175517702509367 -1.872449005199798 C29.204989409655504 -1.4134033772648664, 29.23446111680164 -0.9543577493299348, 29.255606215913414 -0.6250057626472757 M29.255606215913414 -0.6250057626472757 C29.255606215913414 -0.3485479390496596, 29.255606215913414 -0.07209011545204347, 29.255606215913414 0.625005762647271 M29.255606215913414 -0.6250057626472757 C29.255606215913414 -0.1366344590746143, 29.255606215913414 0.3517368444980471, 29.255606215913414 0.625005762647271 M29.255606215913414 0.625005762647271 C29.225812201259192 1.089071590182535, 29.196018186604974 1.553137417717799, 29.175517702509367 1.8724490051997846 M29.255606215913414 0.625005762647271 C29.236245388026028 0.9265662847722906, 29.216884560138645 1.2281268068973104, 29.175517702509367 1.8724490051997846 M29.175517702509367 1.8724490051997846 C29.13746123273493 2.167607469670354, 29.09940476296049 2.462765934140923, 29.015669776581777 3.1121979531508885 M29.175517702509367 1.8724490051997846 C29.129485828561396 2.2294631295185834, 29.083453954613425 2.5864772538373817, 29.015669776581777 3.1121979531508885 M29.015669776581777 3.1121979531508885 C28.942716970434564 3.4867951941357926, 28.86976416428735 3.8613924351206963, 28.77671928754556 4.339158212148129 M29.015669776581777 3.1121979531508885 C28.93332627678087 3.535014421323702, 28.850982776979965 3.957830889496516, 28.77671928754556 4.339158212148129 M28.77671928754556 4.339158212148129 C28.670819986540266 4.742998143928702, 28.56492068553497 5.146838075709276, 28.459648134214884 5.548287939305125 M28.77671928754556 4.339158212148129 C28.65020476978284 4.82161290011624, 28.523690252020113 5.304067588084352, 28.459648134214884 5.548287939305125 M28.459648134214884 5.548287939305125 C28.321368513249546 5.964764125787116, 28.183088892284204 6.381240312269107, 28.06575922997033 6.734618561215495 M28.459648134214884 5.548287939305125 C28.37335728461598 5.808182229717228, 28.28706643501708 6.06807652012933, 28.06575922997033 6.734618561215495 M28.06575922997033 6.734618561215495 C27.931207211340922 7.066964648616444, 27.796655192711512 7.399310736017392, 27.596671148808344 7.893275190886679 M28.06575922997033 6.734618561215495 C27.933098136759313 7.062294026274461, 27.800437043548296 7.389969491333428, 27.596671148808344 7.893275190886679 M27.596671148808344 7.893275190886679 C27.46489982545652 8.166901163281391, 27.3331285021047 8.440527135676104, 27.054311474273504 9.019496659696284 M27.596671148808344 7.893275190886679 C27.46553339386094 8.165585544933423, 27.334395638913538 8.437895898980166, 27.054311474273504 9.019496659696284 M27.054311474273504 9.019496659696284 C26.892393439691364 9.306998526075793, 26.730475405109225 9.594500392455302, 26.44090887860425 10.108655082055236 M27.054311474273504 9.019496659696284 C26.92696663034889 9.245610325148176, 26.799621786424275 9.471723990600069, 26.44090887860425 10.108655082055236 M26.44090887860425 10.108655082055236 C26.255141665266372 10.394043407223624, 26.069374451928493 10.679431732392011, 25.75898396464064 11.156274872382301 M26.44090887860425 10.108655082055236 C26.293923825156796 10.334463595163838, 26.146938771709344 10.560272108272441, 25.75898396464064 11.156274872382301 M25.75898396464064 11.156274872382301 C25.507901621342963 11.492702338329154, 25.25681927804528 11.82912980427601, 25.011338908126582 12.158051136245302 M25.75898396464064 11.156274872382301 C25.49341000848911 11.512119779340226, 25.227836052337576 11.867964686298151, 25.011338908126582 12.158051136245302 M25.011338908126582 12.158051136245302 C24.821233027847004 12.381360320552723, 24.631127147567426 12.604669504860144, 24.20104594296866 13.10986736009567 M25.011338908126582 12.158051136245302 C24.748268261681517 12.467068886703515, 24.48519761523645 12.776086637161729, 24.20104594296866 13.10986736009567 M24.20104594296866 13.10986736009567 C23.980995824880758 13.337087173472112, 23.760945706792857 13.564306986848555, 23.33143473676799 14.007812326905684 M24.20104594296866 13.10986736009567 C23.933139703907955 13.386502547437134, 23.66523346484725 13.6631377347786, 23.33143473676799 14.007812326905684 M23.33143473676799 14.007812326905684 C23.105634492140585 14.212878134729205, 22.87983424751318 14.417943942552725, 22.406078708501887 14.848196188198111 M23.33143473676799 14.007812326905684 C22.970094131616392 14.335972303955854, 22.608753526464795 14.664132281006024, 22.406078708501887 14.848196188198111 M22.406078708501887 14.848196188198111 C22.07481067022409 15.112373633311933, 21.74354263194629 15.376551078425756, 21.428780344578715 15.627565626425152 M22.406078708501887 14.848196188198111 C22.17281649271602 15.034216597919086, 21.939554276930153 15.220237007640058, 21.428780344578715 15.627565626425152 M21.428780344578715 15.627565626425152 C21.11976890064516 15.84311863282339, 20.810757456711606 16.05867163922163, 20.403555573605708 16.34271804539089 M21.428780344578715 15.627565626425152 C21.15035360332604 15.82178406822365, 20.871926862073362 16.016002510022147, 20.403555573605708 16.34271804539089 M20.403555573605708 16.34271804539089 C20.089079166891484 16.533355491209548, 19.774602760177263 16.72399293702821, 19.334617264076787 16.990714730406093 M20.403555573605708 16.34271804539089 C20.082719679291856 16.537210649964944, 19.761883784978 16.731703254538996, 19.334617264076787 16.990714730406093 M19.334617264076787 16.990714730406093 C18.982106586243702 17.174619325237746, 18.62959590841062 17.358523920069402, 18.226357912792388 17.56889292409717 M19.334617264076787 16.990714730406093 C19.04998862674131 17.139205308190668, 18.76535998940583 17.287695885975243, 18.226357912792388 17.56889292409717 M18.226357912792388 17.56889292409717 C17.891345415292115 17.717193018947892, 17.556332917791842 17.865493113798617, 17.083331595147804 18.07487676824742 M18.226357912792388 17.56889292409717 C17.840136883823288 17.739861516782028, 17.453915854854184 17.91083010946689, 17.083331595147804 18.07487676824742 M17.083331595147804 18.07487676824742 C16.7512279734502 18.197093970964364, 16.419124351752593 18.31931117368131, 15.910235251460616 18.506587066708033 M17.083331595147804 18.07487676824742 C16.6640652308804 18.22917066595361, 16.244798866612996 18.3834645636598, 15.910235251460616 18.506587066708033 M15.910235251460616 18.506587066708033 C15.546184001213566 18.61463556683735, 15.182132750966518 18.722684066966668, 14.711889386235413 18.86224982926107 M15.910235251460616 18.506587066708033 C15.582680029207873 18.6038037373002, 15.25512480695513 18.70102040789237, 14.711889386235413 18.86224982926107 M14.711889386235413 18.86224982926107 C14.28253309094686 18.960247601849012, 13.853176795658309 19.058245374436954, 13.493218259676766 19.140403561325773 M14.711889386235413 18.86224982926107 C14.467651397855336 18.917995556306998, 14.223413409475262 18.97374128335293, 13.493218259676766 19.140403561325773 M13.493218259676766 19.140403561325773 C13.135885563096528 19.198174340552416, 12.77855286651629 19.25594511977906, 12.259229652847878 19.3399052695533 M13.493218259676766 19.140403561325773 C13.101059313979619 19.203804778428044, 12.708900368282473 19.267205995530315, 12.259229652847878 19.3399052695533 M12.259229652847878 19.3399052695533 C11.798249870984616 19.384375434700345, 11.337270089121352 19.428845599847396, 11.0149942896239 19.45993515863156 M12.259229652847878 19.3399052695533 C11.907546831547817 19.37383168836364, 11.555864010247758 19.407758107173986, 11.0149942896239 19.45993515863156 M11.0149942896239 19.45993515863156 C10.645164943550776 19.47179486593097, 10.275335597477655 19.483654573230382, 9.765625000000004 19.5 M11.0149942896239 19.45993515863156 C10.607022578740171 19.473018017330837, 10.19905086785644 19.486100876030118, 9.765625000000004 19.5 M9.765625000000004 19.5 C9.765625000000004 19.5, 9.765625000000002 19.5, 9.765625 19.5 M9.765625000000004 19.5 C9.765625000000004 19.5, 9.765625000000002 19.5, 9.765625 19.5 M9.765625 19.5 C2.6354522153549897 19.5, -4.4947205692900205 19.5, -9.765624999999996 19.5 M9.765625 19.5 C5.630297675571464 19.5, 1.4949703511429284 19.5, -9.765624999999996 19.5 M-9.765624999999996 19.5 C-10.069495976811655 19.490255449222627, -10.373366953623316 19.48051089844525, -11.014994289623893 19.45993515863156 M-9.765624999999996 19.5 C-10.153683351236074 19.48755572398562, -10.541741702472152 19.475111447971237, -11.014994289623893 19.45993515863156 M-11.014994289623893 19.45993515863156 C-11.43866934564427 19.41906373552108, -11.862344401664648 19.378192312410594, -12.259229652847871 19.3399052695533 M-11.014994289623893 19.45993515863156 C-11.361445618098738 19.426513415642273, -11.707896946573584 19.39309167265299, -12.259229652847871 19.3399052695533 M-12.259229652847871 19.3399052695533 C-12.589145199147508 19.286567082560847, -12.919060745447144 19.233228895568395, -13.493218259676759 19.140403561325773 M-12.259229652847871 19.3399052695533 C-12.726178547840634 19.26441259345363, -13.193127442833397 19.188919917353967, -13.493218259676759 19.140403561325773 M-13.493218259676759 19.140403561325773 C-13.814985379862547 19.066962315870057, -14.136752500048335 18.99352107041434, -14.711889386235388 18.862249829261074 M-13.493218259676759 19.140403561325773 C-13.750995384217811 19.08156761480222, -14.008772508758863 19.02273166827867, -14.711889386235388 18.862249829261074 M-14.711889386235388 18.862249829261074 C-15.025037065327151 18.76930924185235, -15.338184744418916 18.676368654443625, -15.910235251460593 18.506587066708043 M-14.711889386235388 18.862249829261074 C-15.07619365676398 18.754126234040328, -15.440497927292572 18.64600263881958, -15.910235251460593 18.506587066708043 M-15.910235251460593 18.506587066708043 C-16.266060385030958 18.37564012834267, -16.621885518601324 18.244693189977298, -17.083331595147797 18.074876768247425 M-15.910235251460593 18.506587066708043 C-16.31121374852889 18.359023273182316, -16.712192245597187 18.21145947965659, -17.083331595147797 18.074876768247425 M-17.083331595147797 18.074876768247425 C-17.399920611821987 17.934732201845268, -17.716509628496176 17.79458763544311, -18.22635791279238 17.568892924097174 M-17.083331595147797 18.074876768247425 C-17.337787440467483 17.962236713688863, -17.59224328578717 17.849596659130302, -18.22635791279238 17.568892924097174 M-18.22635791279238 17.568892924097174 C-18.607501704221608 17.370050452242797, -18.988645495650832 17.17120798038842, -19.33461726407678 16.990714730406097 M-18.22635791279238 17.568892924097174 C-18.602218235159466 17.372806834668292, -18.97807855752655 17.17672074523941, -19.33461726407678 16.990714730406097 M-19.33461726407678 16.990714730406097 C-19.683421574552533 16.779267507594042, -20.032225885028286 16.567820284781988, -20.403555573605686 16.3427180453909 M-19.33461726407678 16.990714730406097 C-19.728113350197223 16.752175090560208, -20.121609436317662 16.513635450714315, -20.403555573605686 16.3427180453909 M-20.403555573605686 16.3427180453909 C-20.701705730226212 16.134741402844682, -20.99985588684674 15.926764760298465, -21.428780344578712 15.627565626425156 M-20.403555573605686 16.3427180453909 C-20.659312257108574 16.16431325450767, -20.915068940611462 15.985908463624446, -21.428780344578712 15.627565626425156 M-21.428780344578712 15.627565626425156 C-21.817867525863253 15.31727895339547, -22.206954707147798 15.006992280365782, -22.40607870850187 14.848196188198125 M-21.428780344578712 15.627565626425156 C-21.72179995604586 15.393890283859445, -22.014819567513005 15.160214941293733, -22.40607870850187 14.848196188198125 M-22.40607870850187 14.848196188198125 C-22.654824885270916 14.622291491919661, -22.903571062039962 14.396386795641199, -23.331434736767974 14.007812326905697 M-22.40607870850187 14.848196188198125 C-22.595283184260015 14.67636568939068, -22.78448766001816 14.504535190583235, -23.331434736767974 14.007812326905697 M-23.331434736767974 14.007812326905697 C-23.609197928137423 13.72099902703462, -23.88696111950687 13.434185727163545, -24.201045942968655 13.109867360095677 M-23.331434736767974 14.007812326905697 C-23.575522504025734 13.755771667233676, -23.819610271283494 13.503731007561655, -24.201045942968655 13.109867360095677 M-24.201045942968655 13.109867360095677 C-24.414859923060174 12.858709292720052, -24.628673903151693 12.607551225344428, -25.01133890812658 12.158051136245307 M-24.201045942968655 13.109867360095677 C-24.441214051791825 12.82775223351945, -24.681382160614994 12.545637106943222, -25.01133890812658 12.158051136245307 M-25.01133890812658 12.158051136245307 C-25.228531855390965 11.867032373595576, -25.445724802655352 11.576013610945845, -25.758983964640635 11.156274872382316 M-25.01133890812658 12.158051136245307 C-25.182222411186842 11.929082809951945, -25.353105914247102 11.700114483658584, -25.758983964640635 11.156274872382316 M-25.758983964640635 11.156274872382316 C-25.942764901150937 10.873938001811096, -26.126545837661237 10.591601131239877, -26.440908878604244 10.108655082055249 M-25.758983964640635 11.156274872382316 C-25.984843497115126 10.809293978724977, -26.21070302958962 10.462313085067638, -26.440908878604244 10.108655082055249 M-26.440908878604244 10.108655082055249 C-26.67740350034912 9.688734933469973, -26.913898122093993 9.2688147848847, -27.0543114742735 9.019496659696289 M-26.440908878604244 10.108655082055249 C-26.613171514762332 9.802785328073146, -26.78543415092042 9.496915574091043, -27.0543114742735 9.019496659696289 M-27.0543114742735 9.019496659696289 C-27.236234035472055 8.641730568848251, -27.41815659667061 8.263964478000215, -27.59667114880834 7.893275190886686 M-27.0543114742735 9.019496659696289 C-27.257088032736437 8.5984267973247, -27.459864591199374 8.177356934953114, -27.59667114880834 7.893275190886686 M-27.59667114880834 7.893275190886686 C-27.71361768196452 7.604414992983516, -27.830564215120702 7.315554795080347, -28.065759229970325 6.73461856121551 M-27.59667114880834 7.893275190886686 C-27.694017567164913 7.6528276554809915, -27.791363985521485 7.412380120075297, -28.065759229970325 6.73461856121551 M-28.065759229970325 6.73461856121551 C-28.188851659171384 6.363883776577129, -28.311944088372446 5.9931489919387495, -28.45964813421488 5.5482879393051325 M-28.065759229970325 6.73461856121551 C-28.182942107661255 6.38168240416648, -28.30012498535218 6.02874624711745, -28.45964813421488 5.5482879393051325 M-28.45964813421488 5.5482879393051325 C-28.559052456270393 5.1692161772017595, -28.658456778325906 4.7901444150983865, -28.776719287545557 4.339158212148136 M-28.45964813421488 5.5482879393051325 C-28.535775519443742 5.257981225610018, -28.611902904672604 4.967674511914904, -28.776719287545557 4.339158212148136 M-28.776719287545557 4.339158212148136 C-28.87221652970058 3.8488000570313754, -28.967713771855603 3.358441901914615, -29.015669776581777 3.112197953150904 M-28.776719287545557 4.339158212148136 C-28.842435761623847 4.001718006937843, -28.908152235702136 3.6642778017275495, -29.015669776581777 3.112197953150904 M-29.015669776581777 3.112197953150904 C-29.068262507829388 2.704299115203894, -29.120855239077002 2.296400277256885, -29.175517702509364 1.872449005199809 M-29.015669776581777 3.112197953150904 C-29.059405702184804 2.7729907508092118, -29.103141627787828 2.4337835484675194, -29.175517702509364 1.872449005199809 M-29.175517702509364 1.872449005199809 C-29.20370526672217 1.433404939993026, -29.231892830934978 0.9943608747862429, -29.255606215913414 0.6250057626472781 M-29.175517702509364 1.872449005199809 C-29.206265549618887 1.393526467253504, -29.23701339672841 0.9146039293071988, -29.255606215913414 0.6250057626472781 M-29.255606215913414 0.6250057626472781 C-29.255606215913414 0.22749781670041097, -29.255606215913414 -0.1700101292464562, -29.255606215913414 -0.6250057626472687 M-29.255606215913414 0.6250057626472781 C-29.255606215913414 0.36740907966816155, -29.255606215913414 0.10981239668904497, -29.255606215913414 -0.6250057626472687 M-29.255606215913414 -0.6250057626472687 C-29.230661361943138 -1.0135419983580487, -29.20571650797286 -1.4020782340688287, -29.175517702509367 -1.8724490051997822 M-29.255606215913414 -0.6250057626472687 C-29.2322719868973 -0.9884552146239418, -29.20893775788118 -1.351904666600615, -29.175517702509367 -1.8724490051997822 M-29.175517702509367 -1.8724490051997822 C-29.123539121373742 -2.275584616155872, -29.071560540238117 -2.6787202271119614, -29.015669776581777 -3.112197953150895 M-29.175517702509367 -1.8724490051997822 C-29.112419237685724 -2.3618282381707325, -29.04932077286208 -2.8512074711416826, -29.015669776581777 -3.112197953150895 M-29.015669776581777 -3.112197953150895 C-28.92316649219239 -3.5871827679143147, -28.830663207803006 -4.062167582677734, -28.77671928754556 -4.339158212148126 M-29.015669776581777 -3.112197953150895 C-28.95457757226357 -3.4258935104829256, -28.893485367945367 -3.7395890678149564, -28.77671928754556 -4.339158212148126 M-28.77671928754556 -4.339158212148126 C-28.679392288830766 -4.710308240035708, -28.582065290115974 -5.08145826792329, -28.459648134214884 -5.548287939305123 M-28.77671928754556 -4.339158212148126 C-28.663080096302842 -4.77251369989365, -28.549440905060123 -5.205869187639173, -28.459648134214884 -5.548287939305123 M-28.459648134214884 -5.548287939305123 C-28.32133174761759 -5.9648748580127435, -28.183015361020303 -6.381461776720365, -28.065759229970332 -6.734618561215485 M-28.459648134214884 -5.548287939305123 C-28.33157332092617 -5.934028870980412, -28.20349850763746 -6.319769802655701, -28.065759229970332 -6.734618561215485 M-28.065759229970332 -6.734618561215485 C-27.913456185385982 -7.1108100259178775, -27.761153140801635 -7.487001490620269, -27.596671148808344 -7.893275190886676 M-28.065759229970332 -6.734618561215485 C-27.897111024958047 -7.15118288818706, -27.72846281994576 -7.567747215158636, -27.596671148808344 -7.893275190886676 M-27.596671148808344 -7.893275190886676 C-27.458999065293476 -8.179154218015993, -27.321326981778608 -8.46503324514531, -27.054311474273504 -9.019496659696282 M-27.596671148808344 -7.893275190886676 C-27.48524031708347 -8.124663697201228, -27.3738094853586 -8.356052203515778, -27.054311474273504 -9.019496659696282 M-27.054311474273504 -9.019496659696282 C-26.855882871124727 -9.371826737661824, -26.65745426797595 -9.724156815627365, -26.440908878604247 -10.108655082055243 M-27.054311474273504 -9.019496659696282 C-26.850841094078415 -9.380778923342834, -26.64737071388333 -9.742061186989387, -26.440908878604247 -10.108655082055243 M-26.440908878604247 -10.108655082055243 C-26.274932421688405 -10.363639490797176, -26.108955964772562 -10.61862389953911, -25.75898396464064 -11.156274872382308 M-26.440908878604247 -10.108655082055243 C-26.294114269458376 -10.33417102157516, -26.147319660312505 -10.559686961095078, -25.75898396464064 -11.156274872382308 M-25.75898396464064 -11.156274872382308 C-25.463639622296398 -11.55200938470049, -25.168295279952154 -11.947743897018674, -25.011338908126586 -12.158051136245302 M-25.75898396464064 -11.156274872382308 C-25.602807536661317 -11.365537057909318, -25.44663110868199 -11.574799243436328, -25.011338908126586 -12.158051136245302 M-25.011338908126586 -12.158051136245302 C-24.698484606341346 -12.52554760103632, -24.38563030455611 -12.893044065827342, -24.201045942968662 -13.10986736009567 M-25.011338908126586 -12.158051136245302 C-24.706427738061343 -12.516217146541015, -24.4015165679961 -12.874383156836727, -24.201045942968662 -13.10986736009567 M-24.201045942968662 -13.10986736009567 C-24.005321256495694 -13.311969168174615, -23.80959657002273 -13.51407097625356, -23.331434736767996 -14.007812326905677 M-24.201045942968662 -13.10986736009567 C-23.96227201779691 -13.356421041539338, -23.72349809262516 -13.602974722983008, -23.331434736767996 -14.007812326905677 M-23.331434736767996 -14.007812326905677 C-23.096030240417758 -14.221600462029299, -22.86062574406752 -14.435388597152922, -22.406078708501887 -14.848196188198107 M-23.331434736767996 -14.007812326905677 C-23.038820975211806 -14.273556403015133, -22.74620721365562 -14.539300479124588, -22.406078708501887 -14.848196188198107 M-22.406078708501887 -14.848196188198107 C-22.116269819148066 -15.079311065319345, -21.826460929794248 -15.310425942440583, -21.42878034457872 -15.627565626425149 M-22.406078708501887 -14.848196188198107 C-22.0153069491932 -15.159826267373548, -21.62453518988451 -15.471456346548987, -21.42878034457872 -15.627565626425149 M-21.42878034457872 -15.627565626425149 C-21.06518984148808 -15.881190621801979, -20.70159933839744 -16.13481561717881, -20.40355557360571 -16.342718045390885 M-21.42878034457872 -15.627565626425149 C-21.11498031292125 -15.846458944324969, -20.80118028126378 -16.06535226222479, -20.40355557360571 -16.342718045390885 M-20.40355557360571 -16.342718045390885 C-20.085686065587137 -16.53541240916032, -19.767816557568562 -16.728106772929756, -19.33461726407679 -16.99071473040609 M-20.40355557360571 -16.342718045390885 C-20.021716413490346 -16.5741911881888, -19.639877253374976 -16.805664330986712, -19.33461726407679 -16.99071473040609 M-19.33461726407679 -16.99071473040609 C-18.93468319593026 -17.19936007758814, -18.534749127783726 -17.408005424770188, -18.226357912792388 -17.56889292409717 M-19.33461726407679 -16.99071473040609 C-18.985951438533537 -17.172613468260888, -18.63728561299028 -17.354512206115682, -18.226357912792388 -17.56889292409717 M-18.226357912792388 -17.56889292409717 C-17.863428277549783 -17.729551107693958, -17.500498642307175 -17.89020929129074, -17.083331595147804 -18.07487676824742 M-18.226357912792388 -17.56889292409717 C-17.789122069589748 -17.76244426174252, -17.35188622638711 -17.95599559938787, -17.083331595147804 -18.07487676824742 M-17.083331595147804 -18.07487676824742 C-16.7660180590561 -18.19165108274334, -16.448704522964398 -18.30842539723926, -15.910235251460618 -18.506587066708033 M-17.083331595147804 -18.07487676824742 C-16.808920616930568 -18.17586254485864, -16.534509638713327 -18.27684832146986, -15.910235251460618 -18.506587066708033 M-15.910235251460618 -18.506587066708033 C-15.66219584542985 -18.580203860432555, -15.41415643939908 -18.653820654157077, -14.711889386235413 -18.862249829261067 M-15.910235251460618 -18.506587066708033 C-15.59785742159239 -18.599299166908235, -15.285479591724162 -18.692011267108434, -14.711889386235413 -18.862249829261067 M-14.711889386235413 -18.862249829261067 C-14.355381593217565 -18.943620406586625, -13.998873800199718 -19.024990983912186, -13.493218259676768 -19.140403561325773 M-14.711889386235413 -18.862249829261067 C-14.288257246875272 -18.95894110061196, -13.864625107515133 -19.05563237196285, -13.493218259676768 -19.140403561325773 M-13.493218259676768 -19.140403561325773 C-13.029005306053712 -19.215453911642328, -12.564792352430654 -19.290504261958883, -12.25922965284788 -19.3399052695533 M-13.493218259676768 -19.140403561325773 C-13.154173713728767 -19.195217654184923, -12.815129167780766 -19.250031747044073, -12.25922965284788 -19.3399052695533 M-12.25922965284788 -19.3399052695533 C-11.79757246189387 -19.38444078354063, -11.335915270939859 -19.428976297527957, -11.014994289623903 -19.45993515863156 M-12.25922965284788 -19.3399052695533 C-12.000316314242909 -19.36488232793967, -11.741402975637936 -19.389859386326048, -11.014994289623903 -19.45993515863156 M-11.014994289623903 -19.45993515863156 C-10.69022024040892 -19.470350030255545, -10.365446191193938 -19.48076490187953, -9.765625000000005 -19.5 M-11.014994289623903 -19.45993515863156 C-10.592877470658525 -19.473471623415232, -10.170760651693149 -19.48700808819891, -9.765625000000005 -19.5 M-9.765625000000005 -19.5 C-9.765625000000004 -19.5, -9.765625000000004 -19.5, -9.765625 -19.5 M-9.765625000000005 -19.5 C-9.765625000000004 -19.5, -9.765625000000004 -19.5, -9.765625 -19.5" stroke="#9370DB" stroke-width="1.3" fill="none" stroke-dasharray="0 0" style=""/></g><g class="label" style="" transform="translate(-16.890625, -12)"><rect/><foreignObject width="33.78125" height="24"><div xmlns="http://www.w3.org/1999/xhtml" style="display: table-cell; white-space: nowrap; line-height: 1.5; max-width: 200px; text-align: center;"><span class="nodeLabel "><p>User</p></span></div></foreignObject></g></g><g class="node default  " id="flowchart-ISP-1" transform="translate(360.015625, 148)"><rect class="basic label-container" style="" x="-121.15625" y="-27" width="242.3125" height="54"/><g class="label" style="" transform="translate(-91.15625, -12)"><rect/><foreignObject width="182.3125" height="24"><div xmlns="http://www.w3.org/1999/xhtml" style="display: table-cell; white-space: nowrap; line-height: 1.5; max-width: 200px; text-align: center;"><span class="nodeLabel "><p>Service Provider / AS 100</p></span></div></foreignObject></g></g><g class="node default  " id="flowchart-Google-3" transform="translate(138, 312)"><rect class="basic label-container" style="" x="-130" y="-39" width="260" height="78"/><g class="label" style="" transform="translate(-100, -24)"><rect/><foreignObject width="200" height="48"><div xmlns="http://www.w3.org/1999/xhtml" style="display: table; white-space: break-spaces; line-height: 1.5; max-width: 200px; text-align: center; width: 200px;"><span class="nodeLabel "><p>Google / AS 15169 - Owner of 8.8.8.0/24</p></span></div></foreignObject></g></g><g class="node default  " id="flowchart-Attacker-4" transform="translate(456.3984375, 312)"><rect class="basic label-container" style="" x="-91.8125" y="-27" width="183.625" height="54"/><g class="label" style="" transform="translate(-61.8125, -12)"><rect/><foreignObject width="123.625" height="24"><div xmlns="http://www.w3.org/1999/xhtml" style="display: table-cell; white-space: nowrap; line-height: 1.5; max-width: 200px; text-align: center;"><span class="nodeLabel "><p>Attacker / AS 666</p></span></div></foreignObject></g></g></g></g></g></svg>