<svg id="mermaid-svg" width="100%" xmlns="http://www.w3.org/2000/svg" class="flowchart" style="max-width: 720.921875px;" viewBox="0 0 720.921875 988" role="graphics-document document" aria-roledescription="flowchart-v2" xmlns:xlink="http://www.w3.org/1999/xlink"><style xmlns="http://www.w3.org/1999/xhtml">@import url("https://cdnjs.cloudflare.com/ajax/libs/font-awesome/6.7.2/css/all.min.css");</style><style>#mermaid-svg{font-family:"trebuchet ms",verdana,arial,sans-serif;font-size:16px;fill:#333;}@keyframes edge-animation-frame{from{stroke-dashoffset:0;}}@keyframes dash{to{stroke-dashoffset:0;}}#mermaid-svg .edge-animation-slow{stroke-dasharray:9,5!important;stroke-dashoffset:900;animation:dash 50s linear infinite;stroke-linecap:round;}#mermaid-svg .edge-animation-fast{stroke-dasharray:9,5!important;stroke-dashoffset:900;animation:dash 20s linear infinite;stroke-linecap:round;}#mermaid-svg .error-icon{fill:#552222;}#mermaid-svg .error-text{fill:#552222;stroke:#552222;}#mermaid-svg .edge-thickness-normal{stroke-width:1px;}#mermaid-svg .edge-thickness-thick{stroke-width:3.5px;}#mermaid-svg .edge-pattern-solid{stroke-dasharray:0;}#mermaid-svg .edge-thickness-invisible{stroke-width:0;fill:none;}#mermaid-svg .edge-pattern-dashed{stroke-dasharray:3;}#mermaid-svg .edge-pattern-dotted{stroke-dasharray:2;}#mermaid-svg .marker{fill:#333333;stroke:#333333;}#mermaid-svg .marker.cross{stroke:#333333;}#mermaid-svg svg{font-family:"trebuchet ms",verdana,arial,sans-serif;font-size:16px;}#mermaid-svg p{margin:0;}#mermaid-svg .label{font-family:"trebuchet ms",verdana,arial,sans-serif;color:#333;}#mermaid-svg .cluster-label text{fill:#333;}#mermaid-svg .cluster-label span{color:#333;}#mermaid-svg .cluster-label span p{background-color:transparent;}#mermaid-svg .label text,#mermaid-svg span{fill:#333;color:#333;}#mermaid-svg .node rect,#mermaid-svg .node circle,#mermaid-svg .node ellipse,#mermaid-svg .node polygon,#mermaid-svg .node path{fill:#ECECFF;stroke:#9370DB;stroke-width:1px;}#mermaid-svg .rough-node .label text,#mermaid-svg .node .label text,#mermaid-svg .image-shape .label,#mermaid-svg .icon-shape .label{text-anchor:middle;}#mermaid-svg .node .katex path{fill:#000;stroke:#000;stroke-width:1px;}#mermaid-svg .rough-node .label,#mermaid-svg .node .label,#mermaid-svg .image-shape .label,#mermaid-svg .icon-shape .label{text-align:center;}#mermaid-svg .node.clickable{cursor:pointer;}#mermaid-svg .root .anchor path{fill:#333333!important;stroke-width:0;stroke:#333333;}#mermaid-svg .arrowheadPath{fill:#333333;}#mermaid-svg .edgePath .path{stroke:#333333;stroke-width:2.0px;}#mermaid-svg .flowchart-link{stroke:#333333;fill:none;}#mermaid-svg .edgeLabel{background-color:rgba(232,232,232, 0.8);text-align:center;}#mermaid-svg .edgeLabel p{background-color:rgba(232,232,232, 0.8);}#mermaid-svg .edgeLabel rect{opacity:0.5;background-color:rgba(232,232,232, 0.8);fill:rgba(232,232,232, 0.8);}#mermaid-svg .labelBkg{background-color:rgba(232, 232, 232, 0.5);}#mermaid-svg .cluster rect{fill:#ffffde;stroke:#aaaa33;stroke-width:1px;}#mermaid-svg .cluster text{fill:#333;}#mermaid-svg .cluster span{color:#333;}#mermaid-svg div.mermaidTooltip{position:absolute;text-align:center;max-width:200px;padding:2px;font-family:"trebuchet ms",verdana,arial,sans-serif;font-size:12px;background:hsl(80, 100%, 96.2745098039%);border:1px solid #aaaa33;border-radius:2px;pointer-events:none;z-index:100;}#mermaid-svg .flowchartTitleText{text-anchor:middle;font-size:18px;fill:#333;}#mermaid-svg rect.text{fill:none;stroke-width:0;}#mermaid-svg .icon-shape,#mermaid-svg .image-shape{background-color:rgba(232,232,232, 0.8);text-align:center;}#mermaid-svg .icon-shape p,#mermaid-svg .image-shape p{background-color:rgba(232,232,232, 0.8);padding:2px;}#mermaid-svg .icon-shape rect,#mermaid-svg .image-shape rect{opacity:0.5;background-color:rgba(232,232,232, 0.8);fill:rgba(232,232,232, 0.8);}#mermaid-svg .label-icon{display:inline-block;height:1em;overflow:visible;vertical-align:-0.125em;}#mermaid-svg .node .label-icon path{fill:currentColor;stroke:revert;stroke-width:revert;}#mermaid-svg :root{--mermaid-font-family:"trebuchet ms",verdana,arial,sans-serif;}</style><g><marker id="mermaid-svg_flowchart-v2-pointEnd" class="marker flowchart-v2" viewBox="0 0 10 10" refX="5" refY="5" markerUnits="userSpaceOnUse" markerWidth="8" markerHeight="8" orient="auto"><path d="M 0 0 L 10 5 L 0 10 z" class="arrowMarkerPath" style="stroke-width: 1; stroke-dasharray: 1, 0;"/></marker><marker id="mermaid-svg_flowchart-v2-pointStart" class="marker flowchart-v2" viewBox="0 0 10 10" refX="4.5" refY="5" markerUnits="userSpaceOnUse" markerWidth="8" markerHeight="8" orient="auto"><path d="M 0 5 L 10 10 L 10 0 z" class="arrowMarkerPath" style="stroke-width: 1; stroke-dasharray: 1, 0;"/></marker><marker id="mermaid-svg_flowchart-v2-circleEnd" class="marker flowchart-v2" viewBox="0 0 10 10" refX="11" refY="5" markerUnits="userSpaceOnUse" markerWidth="11" markerHeight="11" orient="auto"><circle cx="5" cy="5" r="5" class="arrowMarkerPath" style="stroke-width: 1; stroke-dasharray: 1, 0;"/></marker><marker id="mermaid-svg_flowchart-v2-circleStart" class="marker flowchart-v2" viewBox="0 0 10 10" refX="-1" refY="5" markerUnits="userSpaceOnUse" markerWidth="11" markerHeight="11" orient="auto"><circle cx="5" cy="5" r="5" class="arrowMarkerPath" style="stroke-width: 1; stroke-dasharray: 1, 0;"/></marker><marker id="mermaid-svg_flowchart-v2-crossEnd" class="marker cross flowchart-v2" viewBox="0 0 11 11" refX="12" refY="5.2" markerUnits="userSpaceOnUse" markerWidth="11" markerHeight="11" orient="auto"><path d="M 1,1 l 9,9 M 10,1 l -9,9" class="arrowMarkerPath" style="stroke-width: 2; stroke-dasharray: 1, 0;"/></marker><marker id="mermaid-svg_flowchart-v2-crossStart" class="marker cross flowchart-v2" viewBox="0 0 11 11" refX="-1" refY="5.2" markerUnits="userSpaceOnUse" markerWidth="11" markerHeight="11" orient="auto"><path d="M 1,1 l 9,9 M 10,1 l -9,9" class="arrowMarkerPath" style="stroke-width: 2; stroke-dasharray: 1, 0;"/></marker><g class="root"><g class="clusters"><g class="cluster " id="Attacker" data-look="classic"><rect style="fill:#1c1917 !important;stroke:#7c2d12 !important;stroke-width:2px !important" x="141.73046875" y="468" width="330" height="512"/><g class="cluster-label " transform="translate(244.92578125, 468)"><foreignObject width="123.609375" height="24"><div xmlns="http://www.w3.org/1999/xhtml" style="display: table-cell; white-space: nowrap; line-height: 1.5; max-width: 200px; text-align: center;"><span class="nodeLabel " style="color:#fff !important"><p>Passive Receiver</p></span></div></foreignObject></g></g><g class="cluster " id="Physical Boundary" data-look="classic"><rect style="" x="74.28515625" y="314" width="454.890625" height="104"/><g class="cluster-label " transform="translate(266.02734375, 314)"><foreignObject width="71.40625" height="24"><div xmlns="http://www.w3.org/1999/xhtml" style="display: table-cell; white-space: nowrap; line-height: 1.5; max-width: 200px; text-align: center;"><span class="nodeLabel "><p>Air / Walls</p></span></div></foreignObject></g></g><g class="cluster " id="Target System" data-look="classic"><rect style="" x="8" y="8" width="565.453125" height="256"/><g class="cluster-label " transform="translate(212.0234375, 8)"><foreignObject width="157.40625" height="24"><div xmlns="http://www.w3.org/1999/xhtml" style="display: table-cell; white-space: nowrap; line-height: 1.5; max-width: 200px; text-align: center;"><span class="nodeLabel "><p>Target Secure System</p></span></div></foreignObject></g></g></g><g class="edgePaths"><path d="M170.367,87L170.367,93.167C170.367,99.333,170.367,111.667,170.442,123.417C170.516,135.167,170.665,146.334,170.739,151.917L170.814,157.5" id="L_A_B_0" class=" edge-thickness-normal edge-pattern-solid edge-thickness-normal edge-pattern-solid flowchart-link" style=";" data-edge="true" data-et="edge" data-id="L_A_B_0" data-points="W3sieCI6MTcwLjM2NzE4NzUsInkiOjg3fSx7IngiOjE3MC4zNjcxODc1LCJ5IjoxMjR9LHsieCI6MTcwLjg2NzE4NzUsInkiOjE2MS41fV0=" marker-end="url(#mermaid-svg_flowchart-v2-pointEnd)"/><path d="M443.094,87L443.094,93.167C443.094,99.333,443.094,111.667,443.17,125.417C443.247,139.167,443.4,154.333,443.477,161.917L443.553,169.5" id="L_C_D_0" class=" edge-thickness-normal edge-pattern-solid edge-thickness-normal edge-pattern-solid flowchart-link" style=";" data-edge="true" data-et="edge" data-id="L_C_D_0" data-points="W3sieCI6NDQzLjA5Mzc1LCJ5Ijo4N30seyJ4Ijo0NDMuMDkzNzUsInkiOjEyNH0seyJ4Ijo0NDMuNTkzNzUsInkiOjE3My41fV0=" marker-end="url(#mermaid-svg_flowchart-v2-pointEnd)"/><path d="M170.867,239.5L170.784,243.583C170.701,247.667,170.534,255.833,170.451,264.083C170.367,272.333,170.367,280.667,170.367,289C170.367,297.333,170.367,305.667,180.671,313.762C190.974,321.858,211.582,329.717,221.885,333.646L232.189,337.575" id="L_B_E_0" class=" edge-thickness-normal edge-pattern-solid edge-thickness-normal edge-pattern-solid flowchart-link" style=";" data-edge="true" data-et="edge" data-id="L_B_E_0" data-points="W3sieCI6MTcwLjg2NzE4NzUsInkiOjIzOS41fSx7IngiOjE3MC4zNjcxODc1LCJ5IjoyNjR9LHsieCI6MTcwLjM2NzE4NzUsInkiOjI4OX0seyJ4IjoxNzAuMzY3MTg3NSwieSI6MzE0fSx7IngiOjIzNS45MjY0NTczMzE3MzA3NywieSI6MzM5fV0=" marker-end="url(#mermaid-svg_flowchart-v2-pointEnd)"/><path d="M443.594,227.5L443.51,233.583C443.427,239.667,443.26,251.833,443.177,262.083C443.094,272.333,443.094,280.667,443.094,289C443.094,297.333,443.094,305.667,432.79,313.762C422.486,321.858,401.879,329.717,391.576,333.646L381.272,337.575" id="L_D_E_0" class=" edge-thickness-normal edge-pattern-solid edge-thickness-normal edge-pattern-solid flowchart-link" style=";" data-edge="true" data-et="edge" data-id="L_D_E_0" data-points="W3sieCI6NDQzLjU5Mzc1LCJ5IjoyMjcuNX0seyJ4Ijo0NDMuMDkzNzUsInkiOjI2NH0seyJ4Ijo0NDMuMDkzNzUsInkiOjI4OX0seyJ4Ijo0NDMuMDkzNzUsInkiOjMxNH0seyJ4IjozNzcuNTM0NDgwMTY4MjY5MiwieSI6MzM5fV0=" marker-end="url(#mermaid-svg_flowchart-v2-pointEnd)"/><path d="M306.73,393L306.73,397.167C306.73,401.333,306.73,409.667,306.73,418C306.73,426.333,306.73,434.667,306.73,443C306.73,451.333,306.73,459.667,306.73,467.333C306.73,475,306.73,482,306.73,485.5L306.73,489" id="L_E_F_0" class=" edge-thickness-normal edge-pattern-solid edge-thickness-normal edge-pattern-solid flowchart-link" style=";" data-edge="true" data-et="edge" data-id="L_E_F_0" data-points="W3sieCI6MzA2LjczMDQ2ODc1LCJ5IjozOTN9LHsieCI6MzA2LjczMDQ2ODc1LCJ5Ijo0MTh9LHsieCI6MzA2LjczMDQ2ODc1LCJ5Ijo0NDN9LHsieCI6MzA2LjczMDQ2ODc1LCJ5Ijo0Njh9LHsieCI6MzA2LjczMDQ2ODc1LCJ5Ijo0OTN9XQ==" marker-end="url(#mermaid-svg_flowchart-v2-pointEnd)"/><path d="M306.73,571L306.73,575.167C306.73,579.333,306.73,587.667,306.73,595.333C306.73,603,306.73,610,306.73,613.5L306.73,617" id="L_F_G_0" class=" edge-thickness-normal edge-pattern-solid edge-thickness-normal edge-pattern-solid flowchart-link" style=";" data-edge="true" data-et="edge" data-id="L_F_G_0" data-points="W3sieCI6MzA2LjczMDQ2ODc1LCJ5Ijo1NzF9LHsieCI6MzA2LjczMDQ2ODc1LCJ5Ijo1OTZ9LHsieCI6MzA2LjczMDQ2ODc1LCJ5Ijo2MjF9XQ==" marker-end="url(#mermaid-svg_flowchart-v2-pointEnd)"/><path d="M306.73,699L306.73,703.167C306.73,707.333,306.73,715.667,306.73,723.333C306.73,731,306.73,738,306.73,741.5L306.73,745" id="L_G_H_0" class=" edge-thickness-normal edge-pattern-solid edge-thickness-normal edge-pattern-solid flowchart-link" style=";" data-edge="true" data-et="edge" data-id="L_G_H_0" data-points="W3sieCI6MzA2LjczMDQ2ODc1LCJ5Ijo2OTl9LHsieCI6MzA2LjczMDQ2ODc1LCJ5Ijo3MjR9LHsieCI6MzA2LjczMDQ2ODc1LCJ5Ijo3NDl9XQ==" marker-end="url(#mermaid-svg_flowchart-v2-pointEnd)"/><path d="M306.73,827L306.73,831.167C306.73,835.333,306.73,843.667,306.73,851.333C306.73,859,306.73,866,306.73,869.5L306.73,873" id="L_H_I_0" class=" edge-thickness-normal edge-pattern-solid edge-thickness-normal edge-pattern-solid flowchart-link" style=";" data-edge="true" data-et="edge" data-id="L_H_I_0" data-points="W3sieCI6MzA2LjczMDQ2ODc1LCJ5Ijo4Mjd9LHsieCI6MzA2LjczMDQ2ODc1LCJ5Ijo4NTJ9LHsieCI6MzA2LjczMDQ2ODc1LCJ5Ijo4Nzd9XQ==" marker-end="url(#mermaid-svg_flowchart-v2-pointEnd)"/></g><g class="edgeLabels"><g class="edgeLabel" transform="translate(170.3671875, 124)"><g class="label" data-id="L_A_B_0" transform="translate(-77.3671875, -12)"><foreignObject width="154.734375" height="24"><div xmlns="http://www.w3.org/1999/xhtml" class="labelBkg" style="display: table-cell; white-space: nowrap; line-height: 1.5; max-width: 200px; text-align: center;"><span class="edgeLabel "><p>Fast State Transitions</p></span></div></foreignObject></g></g><g class="edgeLabel" transform="translate(443.09375, 124)"><g class="label" data-id="L_C_D_0" transform="translate(-85.375, -12)"><foreignObject width="170.75" height="24"><div xmlns="http://www.w3.org/1999/xhtml" class="labelBkg" style="display: table-cell; white-space: nowrap; line-height: 1.5; max-width: 200px; text-align: center;"><span class="edgeLabel "><p>High-Frequency Signals</p></span></div></foreignObject></g></g><g class="edgeLabel"><g class="label" data-id="L_B_E_0" transform="translate(0, 0)"><foreignObject width="0" height="0"><div xmlns="http://www.w3.org/1999/xhtml" class="labelBkg" style="display: table-cell; white-space: nowrap; line-height: 1.5; max-width: 200px; text-align: center;"><span class="edgeLabel "></span></div></foreignObject></g></g><g class="edgeLabel"><g class="label" data-id="L_D_E_0" transform="translate(0, 0)"><foreignObject width="0" height="0"><div xmlns="http://www.w3.org/1999/xhtml" class="labelBkg" style="display: table-cell; white-space: nowrap; line-height: 1.5; max-width: 200px; text-align: center;"><span class="edgeLabel "></span></div></foreignObject></g></g><g class="edgeLabel"><g class="label" data-id="L_E_F_0" transform="translate(0, 0)"><foreignObject width="0" height="0"><div xmlns="http://www.w3.org/1999/xhtml" class="labelBkg" style="display: table-cell; white-space: nowrap; line-height: 1.5; max-width: 200px; text-align: center;"><span class="edgeLabel "></span></div></foreignObject></g></g><g class="edgeLabel"><g class="label" data-id="L_F_G_0" transform="translate(0, 0)"><foreignObject width="0" height="0"><div xmlns="http://www.w3.org/1999/xhtml" class="labelBkg" style="display: table-cell; white-space: nowrap; line-height: 1.5; max-width: 200px; text-align: center;"><span class="edgeLabel "></span></div></foreignObject></g></g><g class="edgeLabel"><g class="label" data-id="L_G_H_0" transform="translate(0, 0)"><foreignObject width="0" height="0"><div xmlns="http://www.w3.org/1999/xhtml" class="labelBkg" style="display: table-cell; white-space: nowrap; line-height: 1.5; max-width: 200px; text-align: center;"><span class="edgeLabel "></span></div></foreignObject></g></g><g class="edgeLabel"><g class="label" data-id="L_H_I_0" transform="translate(0, 0)"><foreignObject width="0" height="0"><div xmlns="http://www.w3.org/1999/xhtml" class="labelBkg" style="display: table-cell; white-space: nowrap; line-height: 1.5; max-width: 200px; text-align: center;"><span class="edgeLabel "></span></div></foreignObject></g></g></g><g class="nodes"><g class="node default  " id="flowchart-A-0" transform="translate(170.3671875, 60)"><rect class="basic label-container" style="" x="-127.3671875" y="-27" width="254.734375" height="54"/><g class="label" style="" transform="translate(-97.3671875, -12)"><rect/><foreignObject width="194.734375" height="24"><div xmlns="http://www.w3.org/1999/xhtml" style="display: table-cell; white-space: nowrap; line-height: 1.5; max-width: 200px; text-align: center;"><span class="nodeLabel "><p>Data Processing CPU/GPU</p></span></div></foreignObject></g></g><g class="node default  " id="flowchart-B-1" transform="translate(170.3671875, 200)"><g class="basic label-container outer-path"><path d="M-110 -39 C-42.45566336029839 -39, 25.088673279403224 -39, 110 -39 C110 -39, 110 -39, 110 -39 C110.15186392387294 -38.99371886164687, 110.30372784774586 -38.98743772329374, 110.41289672736166 -38.98292246503335 C110.5474598537698 -38.96614918881886, 110.68202298017795 -38.94937591260437, 110.82297295140367 -38.93180651701361 C110.93409027584119 -38.908507664166464, 111.04520760027872 -38.885208811319316, 111.227427435704 -38.84700132969665 C111.33118694813841 -38.81611078445475, 111.4349464605728 -38.78522023921285, 111.62349734602341 -38.729086208503176 C111.74786440883678 -38.680558030004995, 111.87223147165014 -38.63202985150681, 112.00847712326485 -38.57886663327529 C112.09657310744113 -38.53579913090579, 112.18466909161741 -38.492731628536276, 112.37973696518537 -38.39736875603244 C112.51501401017595 -38.31676113358515, 112.65029105516653 -38.236153511137864, 112.73474079061214 -38.185832391312644 C112.8380997699314 -38.112035498509904, 112.94145874925067 -38.038238605707164, 113.07106356344833 -37.94570254698197 C113.15295494231187 -37.876344087078934, 113.2348463211754 -37.806985627175905, 113.3864078581287 -37.67861955336566 C113.48747598160112 -37.577551429893234, 113.58854410507355 -37.47648330642082, 113.67861955336566 -37.386407858128706 C113.75019009495419 -37.301904679354436, 113.82176063654272 -37.21740150058016, 113.94570254698196 -37.07106356344834 C113.99631198480411 -37.00018063547464, 114.04692142262626 -36.92929770750095, 114.18583239131264 -36.734740790612136 C114.25276581263428 -36.62241201607941, 114.31969923395593 -36.51008324154668, 114.39736875603245 -36.379736965185366 C114.45695913288138 -36.25784290105083, 114.51654950973032 -36.1359488369163, 114.57886663327528 -36.008477123264846 C114.62097492031343 -35.90056283220544, 114.66308320735158 -35.792648541146036, 114.72908620850318 -35.62349734602342 C114.76785033842562 -35.49329092884304, 114.80661446834807 -35.36308451166265, 114.84700132969665 -35.227427435703994 C114.87409699653367 -35.09820227502629, 114.90119266337068 -34.96897711434859, 114.93180651701361 -34.82297295140367 C114.94822219249986 -34.69127866656133, 114.9646378679861 -34.55958438171899, 114.98292246503335 -34.41289672736166 C114.98781456999346 -34.294616534588926, 114.99270667495357 -34.17633634181618, 115 -34 C115 -34, 115 -34, 115 -34 C115 -19.459434161866206, 115 -4.918868323732408, 115 34 C115 34, 115 34, 115 34 C114.99553619558486 34.107924840335116, 114.99107239116972 34.21584968067023, 114.98292246503335 34.41289672736166 C114.96373807102539 34.56680297697835, 114.94455367701742 34.72070922659504, 114.93180651701361 34.82297295140367 C114.9116755580728 34.91898189701738, 114.891544599132 35.01499084263109, 114.84700132969665 35.227427435703994 C114.81763692135017 35.326060744669455, 114.78827251300368 35.424694053634916, 114.72908620850318 35.62349734602342 C114.69882370683735 35.70105349096928, 114.66856120517151 35.77860963591513, 114.57886663327528 36.008477123264846 C114.5122143069564 36.14481663592855, 114.4455619806375 36.28115614859225, 114.39736875603245 36.379736965185366 C114.32565387455547 36.500090065221265, 114.2539389930785 36.62044316525716, 114.18583239131264 36.734740790612136 C114.10995201324799 36.841017872603736, 114.03407163518334 36.94729495459534, 113.94570254698196 37.07106356344834 C113.84382355403226 37.191351863124304, 113.74194456108256 37.31164016280026, 113.67861955336566 37.386407858128706 C113.60756156318351 37.457465848310854, 113.53650357300135 37.52852383849301, 113.3864078581287 37.67861955336566 C113.26490038338106 37.78153113492845, 113.14339290863342 37.884442716491236, 113.07106356344833 37.94570254698197 C112.99710388465968 37.99850874266267, 112.92314420587103 38.05131493834338, 112.73474079061214 38.185832391312644 C112.61860877157768 38.25503205445595, 112.50247675254323 38.32423171759926, 112.37973696518537 38.39736875603244 C112.29842863018465 38.437117978917534, 112.21712029518392 38.47686720180263, 112.00847712326485 38.57886663327529 C111.9015032552951 38.62060796608515, 111.79452938732534 38.66234929889501, 111.62349734602341 38.729086208503176 C111.53817436150042 38.75448796157375, 111.45285137697743 38.77988971464432, 111.227427435704 38.84700132969665 C111.07390538743817 38.87919151812537, 110.92038333917235 38.91138170655408, 110.82297295140367 38.93180651701361 C110.71593065187825 38.94514932573469, 110.60888835235285 38.95849213445577, 110.41289672736166 38.98292246503335 C110.29297350715474 38.98788252611081, 110.17305028694781 38.99284258718827, 110 39 C110 39, 110 39, 110 39 C43.93563299953625 39, -22.128734000927494 39, -110 39 C-110 39, -110 39, -110 39 C-110.13968357189295 38.99422264473126, -110.2793671437859 38.98844528946252, -110.41289672736166 38.98292246503335 C-110.55586505916844 38.96510148105854, -110.69883339097522 38.947280497083725, -110.82297295140367 38.93180651701361 C-110.95334889045107 38.90446955732663, -111.08372482949845 38.877132597639644, -111.227427435704 38.84700132969665 C-111.34792282171125 38.81112829901669, -111.46841820771849 38.77525526833672, -111.62349734602341 38.729086208503176 C-111.71144435287134 38.69476917994151, -111.79939135971927 38.660452151379836, -112.00847712326485 38.57886663327529 C-112.15461351487156 38.50742490468073, -112.30074990647826 38.43598317608617, -112.37973696518537 38.39736875603245 C-112.50155106437393 38.32478330802218, -112.62336516356247 38.2521978600119, -112.73474079061214 38.185832391312644 C-112.83601408557648 38.113524648516744, -112.93728738054082 38.04121690572085, -113.07106356344833 37.94570254698197 C-113.19394491559162 37.841627350621394, -113.3168262677349 37.73755215426081, -113.3864078581287 37.67861955336566 C-113.49194263587052 37.57308477562385, -113.59747741361232 37.46754999788204, -113.67861955336566 37.386407858128706 C-113.74179475442345 37.31181703918845, -113.80496995548123 37.23722622024818, -113.94570254698196 37.07106356344834 C-114.03109384647632 36.95146560717565, -114.11648514597067 36.83186765090296, -114.18583239131264 36.734740790612136 C-114.26142425063077 36.607881282250055, -114.33701610994889 36.481021773887974, -114.39736875603245 36.379736965185366 C-114.44390180917868 36.28455208359009, -114.49043486232493 36.18936720199482, -114.57886663327528 36.008477123264846 C-114.6122318722451 35.92296934409079, -114.64559711121491 35.83746156491673, -114.72908620850318 35.62349734602342 C-114.75575320328886 35.533924489494495, -114.78242019807455 35.44435163296558, -114.84700132969665 35.227427435703994 C-114.8714240279269 35.11095024686149, -114.89584672615717 34.99447305801899, -114.93180651701361 34.82297295140367 C-114.94804962040652 34.69266312122081, -114.96429272379943 34.56235329103795, -114.98292246503335 34.41289672736166 C-114.98706991845619 34.312620548831354, -114.99121737187902 34.21234437030105, -115 34 C-115 34, -115 34, -115 34 C-115 6.958364364045213, -115 -20.083271271909574, -115 -34 C-115 -34, -115 -34, -115 -34 C-114.99424796443951 -34.13907139778841, -114.98849592887903 -34.27814279557682, -114.98292246503335 -34.41289672736166 C-114.97181248260993 -34.50202624208008, -114.9607025001865 -34.59115575679849, -114.93180651701361 -34.82297295140367 C-114.90564943864027 -34.947721778438904, -114.87949236026692 -35.072470605474145, -114.84700132969665 -35.227427435703994 C-114.81134493776347 -35.34719514498805, -114.77568854583026 -35.466962854272104, -114.72908620850318 -35.62349734602342 C-114.69355241554487 -35.714562652771086, -114.65801862258655 -35.80562795951876, -114.57886663327528 -36.008477123264846 C-114.53594463159642 -36.0962754810213, -114.49302262991758 -36.18407383877776, -114.39736875603245 -36.379736965185366 C-114.35087395577064 -36.45776530786423, -114.30437915550883 -36.53579365054309, -114.18583239131264 -36.734740790612136 C-114.13232906441698 -36.80967686241808, -114.0788257375213 -36.88461293422402, -113.94570254698196 -37.07106356344834 C-113.84393481211256 -37.19122050095711, -113.74216707724317 -37.311377438465875, -113.67861955336566 -37.386407858128706 C-113.60878540006601 -37.45624201142835, -113.53895124676637 -37.526076164727996, -113.3864078581287 -37.67861955336566 C-113.31078662637613 -37.742667469558036, -113.23516539462354 -37.806715385750415, -113.07106356344833 -37.94570254698197 C-112.98352916341639 -38.00820090733976, -112.89599476338445 -38.070699267697556, -112.73474079061214 -38.185832391312644 C-112.63741303208654 -38.24382714728487, -112.54008527356095 -38.30182190325709, -112.37973696518537 -38.39736875603245 C-112.26869929170887 -38.451651766890066, -112.15766161823237 -38.50593477774768, -112.00847712326485 -38.57886663327528 C-111.90229479545599 -38.62029910615593, -111.79611246764713 -38.66173157903659, -111.62349734602341 -38.729086208503176 C-111.50322083705706 -38.76489407666478, -111.38294432809069 -38.800701944826386, -111.227427435704 -38.84700132969665 C-111.07400220788259 -38.879171217013024, -110.92057698006118 -38.91134110432939, -110.82297295140367 -38.93180651701361 C-110.72348244247094 -38.944207996018996, -110.6239919335382 -38.95660947502437, -110.41289672736167 -38.98292246503335 C-110.30821287571578 -38.98725222116474, -110.20352902406991 -38.991581977296136, -110 -39 C-110 -39, -110 -39, -110 -39" stroke="none" stroke-width="0" fill="#ECECFF" style=""/><path d="M-110 -39 C-33.01557424478591 -39, 43.96885151042818 -39, 110 -39 M-110 -39 C-43.635598536635925 -39, 22.72880292672815 -39, 110 -39 M110 -39 C110 -39, 110 -39, 110 -39 M110 -39 C110 -39, 110 -39, 110 -39 M110 -39 C110.10143478604576 -38.99580462621586, 110.2028695720915 -38.991609252431715, 110.41289672736166 -38.98292246503335 M110 -39 C110.09249527764773 -38.996174367018185, 110.18499055529546 -38.99234873403636, 110.41289672736166 -38.98292246503335 M110.41289672736166 -38.98292246503335 C110.5489825949142 -38.96595937933316, 110.68506846246673 -38.948996293632966, 110.82297295140367 -38.93180651701361 M110.41289672736166 -38.98292246503335 C110.53780330449574 -38.96735287643058, 110.66270988162982 -38.95178328782782, 110.82297295140367 -38.93180651701361 M110.82297295140367 -38.93180651701361 C110.93069234321692 -38.909220135714875, 111.03841173503018 -38.88663375441614, 111.227427435704 -38.84700132969665 M110.82297295140367 -38.93180651701361 C110.9203092545088 -38.9113972404745, 111.01764555761392 -38.89098796393538, 111.227427435704 -38.84700132969665 M111.227427435704 -38.84700132969665 C111.36383218351273 -38.80639187679411, 111.50023693132144 -38.765782423891565, 111.62349734602341 -38.729086208503176 M111.227427435704 -38.84700132969665 C111.3166938666276 -38.82042556176625, 111.4059602975512 -38.79384979383584, 111.62349734602341 -38.729086208503176 M111.62349734602341 -38.729086208503176 C111.71365422257746 -38.69390688610638, 111.8038110991315 -38.6587275637096, 112.00847712326485 -38.57886663327529 M111.62349734602341 -38.729086208503176 C111.76495014966676 -38.673891153245066, 111.9064029533101 -38.618696097986955, 112.00847712326485 -38.57886663327529 M112.00847712326485 -38.57886663327529 C112.13016590644446 -38.51937661217009, 112.25185468962408 -38.45988659106489, 112.37973696518537 -38.39736875603244 M112.00847712326485 -38.57886663327529 C112.08393749676137 -38.541976304564486, 112.15939787025786 -38.50508597585369, 112.37973696518537 -38.39736875603244 M112.37973696518537 -38.39736875603244 C112.46990400153952 -38.34364086432596, 112.56007103789368 -38.28991297261948, 112.73474079061214 -38.185832391312644 M112.37973696518537 -38.39736875603244 C112.50960044614247 -38.31998691757338, 112.63946392709957 -38.24260507911431, 112.73474079061214 -38.185832391312644 M112.73474079061214 -38.185832391312644 C112.83515780492927 -38.11413602114782, 112.93557481924638 -38.042439650983006, 113.07106356344833 -37.94570254698197 M112.73474079061214 -38.185832391312644 C112.84970673265957 -38.103748286408376, 112.96467267470702 -38.02166418150411, 113.07106356344833 -37.94570254698197 M113.07106356344833 -37.94570254698197 C113.14850712679035 -37.88011119466445, 113.22595069013236 -37.81451984234693, 113.3864078581287 -37.67861955336566 M113.07106356344833 -37.94570254698197 C113.1385258701388 -37.888564887823065, 113.20598817682927 -37.83142722866416, 113.3864078581287 -37.67861955336566 M113.3864078581287 -37.67861955336566 C113.50064765625312 -37.56437975524125, 113.61488745437752 -37.45013995711684, 113.67861955336566 -37.386407858128706 M113.3864078581287 -37.67861955336566 C113.47801735290703 -37.58701005858733, 113.56962684768536 -37.49540056380901, 113.67861955336566 -37.386407858128706 M113.67861955336566 -37.386407858128706 C113.7606695545083 -37.28953160483936, 113.84271955565094 -37.192655351550016, 113.94570254698196 -37.07106356344834 M113.67861955336566 -37.386407858128706 C113.78133228261991 -37.265135167858105, 113.88404501187415 -37.1438624775875, 113.94570254698196 -37.07106356344834 M113.94570254698196 -37.07106356344834 C114.02247764246154 -36.96353335174797, 114.09925273794111 -36.8560031400476, 114.18583239131264 -36.734740790612136 M113.94570254698196 -37.07106356344834 C114.03181427038018 -36.95045659071774, 114.1179259937784 -36.82984961798715, 114.18583239131264 -36.734740790612136 M114.18583239131264 -36.734740790612136 C114.25356801233599 -36.62106575127411, 114.32130363335935 -36.50739071193608, 114.39736875603245 -36.379736965185366 M114.18583239131264 -36.734740790612136 C114.25575969978456 -36.61738762515423, 114.32568700825647 -36.50003445969632, 114.39736875603245 -36.379736965185366 M114.39736875603245 -36.379736965185366 C114.46942324973294 -36.23234714252029, 114.54147774343343 -36.08495731985522, 114.57886663327528 -36.008477123264846 M114.39736875603245 -36.379736965185366 C114.4535698881604 -36.26477571193797, 114.50977102028835 -36.14981445869057, 114.57886663327528 -36.008477123264846 M114.57886663327528 -36.008477123264846 C114.63020891001256 -35.87689814475024, 114.68155118674983 -35.745319166235646, 114.72908620850318 -35.62349734602342 M114.57886663327528 -36.008477123264846 C114.62374654555506 -35.89345976546795, 114.66862645783485 -35.77844240767105, 114.72908620850318 -35.62349734602342 M114.72908620850318 -35.62349734602342 C114.76117429864932 -35.51571535116245, 114.79326238879547 -35.407933356301484, 114.84700132969665 -35.227427435703994 M114.72908620850318 -35.62349734602342 C114.77141970159522 -35.48130164929881, 114.81375319468727 -35.339105952574194, 114.84700132969665 -35.227427435703994 M114.84700132969665 -35.227427435703994 C114.8790409534869 -35.07462346312586, 114.91108057727716 -34.92181949054773, 114.93180651701361 -34.82297295140367 M114.84700132969665 -35.227427435703994 C114.87210645563039 -35.107695599903955, 114.89721158156414 -34.98796376410392, 114.93180651701361 -34.82297295140367 M114.93180651701361 -34.82297295140367 C114.95046143732607 -34.67331438929346, 114.96911635763851 -34.523655827183255, 114.98292246503335 -34.41289672736166 M114.93180651701361 -34.82297295140367 C114.94801636291974 -34.69292992845273, 114.96422620882588 -34.56288690550178, 114.98292246503335 -34.41289672736166 M114.98292246503335 -34.41289672736166 C114.98923502781415 -34.260273030876924, 114.99554759059495 -34.10764933439218, 115 -34 M114.98292246503335 -34.41289672736166 C114.98947365796722 -34.254503485714494, 114.9960248509011 -34.09611024406733, 115 -34 M115 -34 C115 -34, 115 -34, 115 -34 M115 -34 C115 -34, 115 -34, 115 -34 M115 -34 C115 -20.114069009725146, 115 -6.2281380194502916, 115 34 M115 -34 C115 -10.329956416432367, 115 13.340087167135266, 115 34 M115 34 C115 34, 115 34, 115 34 M115 34 C115 34, 115 34, 115 34 M115 34 C114.99657958035122 34.08269812253008, 114.99315916070245 34.16539624506017, 114.98292246503335 34.41289672736166 M115 34 C114.99445222821186 34.134132755104694, 114.98890445642371 34.268265510209396, 114.98292246503335 34.41289672736166 M114.98292246503335 34.41289672736166 C114.97012501645331 34.51556389082798, 114.95732756787325 34.618231054294284, 114.93180651701361 34.82297295140367 M114.98292246503335 34.41289672736166 C114.97024865247202 34.51457202442084, 114.95757483991068 34.616247321480024, 114.93180651701361 34.82297295140367 M114.93180651701361 34.82297295140367 C114.90097369428474 34.97002142580556, 114.87014087155589 35.11706990020746, 114.84700132969665 35.227427435703994 M114.93180651701361 34.82297295140367 C114.91212914683551 34.916818633013015, 114.89245177665742 35.01066431462235, 114.84700132969665 35.227427435703994 M114.84700132969665 35.227427435703994 C114.81548847942081 35.33327723390064, 114.78397562914498 35.439127032097275, 114.72908620850318 35.62349734602342 M114.84700132969665 35.227427435703994 C114.8073155788556 35.360729522980705, 114.76762982801453 35.494031610257416, 114.72908620850318 35.62349734602342 M114.72908620850318 35.62349734602342 C114.69392472453114 35.71360850661281, 114.65876324055911 35.803719667202195, 114.57886663327528 36.008477123264846 M114.72908620850318 35.62349734602342 C114.682022618108 35.74411099120936, 114.63495902771281 35.8647246363953, 114.57886663327528 36.008477123264846 M114.57886663327528 36.008477123264846 C114.53630060682896 36.09554732204466, 114.49373458038264 36.182617520824465, 114.39736875603245 36.379736965185366 M114.57886663327528 36.008477123264846 C114.52519155396861 36.118271252877754, 114.47151647466194 36.22806538249066, 114.39736875603245 36.379736965185366 M114.39736875603245 36.379736965185366 C114.34321849182642 36.47061283405299, 114.28906822762039 36.56148870292062, 114.18583239131264 36.734740790612136 M114.39736875603245 36.379736965185366 C114.33024092980962 36.492391993238115, 114.2631131035868 36.605047021290865, 114.18583239131264 36.734740790612136 M114.18583239131264 36.734740790612136 C114.11156452373878 36.83875941114095, 114.03729665616491 36.94277803166976, 113.94570254698196 37.07106356344834 M114.18583239131264 36.734740790612136 C114.11045290469967 36.84031633047603, 114.03507341808671 36.94589187033991, 113.94570254698196 37.07106356344834 M113.94570254698196 37.07106356344834 C113.89046556096336 37.136281749602595, 113.83522857494478 37.20149993575685, 113.67861955336566 37.386407858128706 M113.94570254698196 37.07106356344834 C113.86266881213015 37.169101308933314, 113.77963507727834 37.26713905441829, 113.67861955336566 37.386407858128706 M113.67861955336566 37.386407858128706 C113.61777065353407 37.447256757960304, 113.55692175370247 37.5081056577919, 113.3864078581287 37.67861955336566 M113.67861955336566 37.386407858128706 C113.58920554937886 37.47582186211551, 113.49979154539206 37.565235866102306, 113.3864078581287 37.67861955336566 M113.3864078581287 37.67861955336566 C113.31257465353374 37.74115308780457, 113.23874144893878 37.803686622243475, 113.07106356344833 37.94570254698197 M113.3864078581287 37.67861955336566 C113.27162001108196 37.77583990057724, 113.15683216403521 37.873060247788814, 113.07106356344833 37.94570254698197 M113.07106356344833 37.94570254698197 C112.97396988360106 38.015026101942595, 112.87687620375378 38.084349656903214, 112.73474079061214 38.185832391312644 M113.07106356344833 37.94570254698197 C112.94653965404576 38.034610909410496, 112.82201574464318 38.12351927183902, 112.73474079061214 38.185832391312644 M112.73474079061214 38.185832391312644 C112.65323692412257 38.23439815425079, 112.571733057633 38.28296391718894, 112.37973696518537 38.39736875603244 M112.73474079061214 38.185832391312644 C112.62595415911325 38.25065515351731, 112.51716752761438 38.31547791572198, 112.37973696518537 38.39736875603244 M112.37973696518537 38.39736875603244 C112.28002944171607 38.44611279406576, 112.18032191824678 38.49485683209909, 112.00847712326485 38.57886663327529 M112.37973696518537 38.39736875603244 C112.24502415291538 38.46322583698668, 112.11031134064538 38.529082917940926, 112.00847712326485 38.57886663327529 M112.00847712326485 38.57886663327529 C111.91862396288151 38.613927445254525, 111.82877080249816 38.64898825723376, 111.62349734602341 38.729086208503176 M112.00847712326485 38.57886663327529 C111.86135873938436 38.63627240480204, 111.71424035550385 38.693678176328795, 111.62349734602341 38.729086208503176 M111.62349734602341 38.729086208503176 C111.47372300361204 38.773675962172845, 111.32394866120066 38.818265715842514, 111.227427435704 38.84700132969665 M111.62349734602341 38.729086208503176 C111.48253487950971 38.77105255305404, 111.34157241299602 38.813018897604906, 111.227427435704 38.84700132969665 M111.227427435704 38.84700132969665 C111.07804896963796 38.87832270030221, 110.92867050357192 38.90964407090777, 110.82297295140367 38.93180651701361 M111.227427435704 38.84700132969665 C111.09984613186992 38.873752315999866, 110.97226482803583 38.90050330230308, 110.82297295140367 38.93180651701361 M110.82297295140367 38.93180651701361 C110.73004777967174 38.94338962759036, 110.6371226079398 38.954972738167115, 110.41289672736166 38.98292246503335 M110.82297295140367 38.93180651701361 C110.69780999333173 38.94740806346695, 110.57264703525979 38.96300960992029, 110.41289672736166 38.98292246503335 M110.41289672736166 38.98292246503335 C110.30711615261198 38.98729758196785, 110.20133557786232 38.99167269890235, 110 39 M110.41289672736166 38.98292246503335 C110.28505672402332 38.98820996668321, 110.157216720685 38.99349746833307, 110 39 M110 39 C110 39, 110 39, 110 39 M110 39 C110 39, 110 39, 110 39 M110 39 C34.08811681487691 39, -41.823766370246176 39, -110 39 M110 39 C41.17248620415076 39, -27.655027591698484 39, -110 39 M-110 39 C-110 39, -110 39, -110 39 M-110 39 C-110 39, -110 39, -110 39 M-110 39 C-110.10494990366938 38.995659239875515, -110.20989980733874 38.99131847975104, -110.41289672736166 38.98292246503335 M-110 39 C-110.11218142874647 38.995360141785895, -110.22436285749295 38.99072028357178, -110.41289672736166 38.98292246503335 M-110.41289672736166 38.98292246503335 C-110.52010215242474 38.96955932273521, -110.62730757748783 38.95619618043706, -110.82297295140367 38.93180651701361 M-110.41289672736166 38.98292246503335 C-110.56635929498428 38.96379337592827, -110.7198218626069 38.94466428682319, -110.82297295140367 38.93180651701361 M-110.82297295140367 38.93180651701361 C-110.94208576451432 38.90683118648867, -111.06119857762496 38.881855855963714, -111.227427435704 38.84700132969665 M-110.82297295140367 38.93180651701361 C-110.95693510637581 38.90371760692167, -111.09089726134795 38.87562869682972, -111.227427435704 38.84700132969665 M-111.227427435704 38.84700132969665 C-111.3327280149299 38.815651988992755, -111.43802859415581 38.78430264828886, -111.62349734602341 38.729086208503176 M-111.227427435704 38.84700132969665 C-111.31741262778105 38.820211577299595, -111.40739781985809 38.79342182490253, -111.62349734602341 38.729086208503176 M-111.62349734602341 38.729086208503176 C-111.73419123173296 38.68589332026691, -111.8448851174425 38.642700432030644, -112.00847712326485 38.57886663327529 M-111.62349734602341 38.729086208503176 C-111.71496157362249 38.693396756145624, -111.80642580122156 38.657707303788065, -112.00847712326485 38.57886663327529 M-112.00847712326485 38.57886663327529 C-112.14848527807861 38.51042081709454, -112.28849343289238 38.4419750009138, -112.37973696518537 38.39736875603245 M-112.00847712326485 38.57886663327529 C-112.108180115991 38.53012481018733, -112.20788310871714 38.48138298709937, -112.37973696518537 38.39736875603245 M-112.37973696518537 38.39736875603245 C-112.5064323651524 38.321874684092435, -112.63312776511945 38.246380612152414, -112.73474079061214 38.185832391312644 M-112.37973696518537 38.39736875603245 C-112.52149594623404 38.31289873805061, -112.66325492728271 38.22842872006878, -112.73474079061214 38.185832391312644 M-112.73474079061214 38.185832391312644 C-112.86885461115727 38.09007696393402, -113.00296843170241 37.99432153655539, -113.07106356344833 37.94570254698197 M-112.73474079061214 38.185832391312644 C-112.8660624906101 38.092070499687445, -112.99738419060809 37.99830860806225, -113.07106356344833 37.94570254698197 M-113.07106356344833 37.94570254698197 C-113.19078524446265 37.844303455558766, -113.31050692547697 37.74290436413556, -113.3864078581287 37.67861955336566 M-113.07106356344833 37.94570254698197 C-113.1368783849381 37.88996023661093, -113.20269320642785 37.8342179262399, -113.3864078581287 37.67861955336566 M-113.3864078581287 37.67861955336566 C-113.48918165706264 37.575845754431725, -113.59195545599657 37.473071955497794, -113.67861955336566 37.386407858128706 M-113.3864078581287 37.67861955336566 C-113.4915243600396 37.57350305145476, -113.59664086195052 37.46838654954386, -113.67861955336566 37.386407858128706 M-113.67861955336566 37.386407858128706 C-113.74436013926015 37.30878809503532, -113.81010072515463 37.23116833194194, -113.94570254698196 37.07106356344834 M-113.67861955336566 37.386407858128706 C-113.73303195656298 37.32216325507183, -113.7874443597603 37.25791865201495, -113.94570254698196 37.07106356344834 M-113.94570254698196 37.07106356344834 C-114.01582309326875 36.97285362779583, -114.08594363955555 36.87464369214332, -114.18583239131264 36.734740790612136 M-113.94570254698196 37.07106356344834 C-114.01930016422962 36.96798368690962, -114.09289778147728 36.864903810370905, -114.18583239131264 36.734740790612136 M-114.18583239131264 36.734740790612136 C-114.23392987298755 36.654022801482455, -114.28202735466246 36.573304812352774, -114.39736875603245 36.379736965185366 M-114.18583239131264 36.734740790612136 C-114.2480984945808 36.63024478641969, -114.31036459784896 36.52574878222725, -114.39736875603245 36.379736965185366 M-114.39736875603245 36.379736965185366 C-114.4407623384532 36.29097397360316, -114.48415592087396 36.20221098202095, -114.57886663327528 36.008477123264846 M-114.39736875603245 36.379736965185366 C-114.45355855027401 36.264798903955274, -114.50974834451557 36.14986084272518, -114.57886663327528 36.008477123264846 M-114.57886663327528 36.008477123264846 C-114.62410627545127 35.89253785675468, -114.66934591762724 35.77659859024451, -114.72908620850318 35.62349734602342 M-114.57886663327528 36.008477123264846 C-114.61719788092059 35.91024255458439, -114.65552912856589 35.81200798590393, -114.72908620850318 35.62349734602342 M-114.72908620850318 35.62349734602342 C-114.76990495143998 35.48638960538172, -114.81072369437678 35.34928186474001, -114.84700132969665 35.227427435703994 M-114.72908620850318 35.62349734602342 C-114.77179340779374 35.480046392305155, -114.81450060708431 35.3365954385869, -114.84700132969665 35.227427435703994 M-114.84700132969665 35.227427435703994 C-114.8728152233021 35.10431533187769, -114.89862911690754 34.98120322805139, -114.93180651701361 34.82297295140367 M-114.84700132969665 35.227427435703994 C-114.87873680824576 35.07607399829416, -114.91047228679489 34.92472056088433, -114.93180651701361 34.82297295140367 M-114.93180651701361 34.82297295140367 C-114.94419819494655 34.723561071292984, -114.95658987287948 34.6241491911823, -114.98292246503335 34.41289672736166 M-114.93180651701361 34.82297295140367 C-114.95195322210131 34.661346588804236, -114.97209992718902 34.4997202262048, -114.98292246503335 34.41289672736166 M-114.98292246503335 34.41289672736166 C-114.98761941237946 34.29933501066268, -114.99231635972558 34.185773293963706, -115 34 M-114.98292246503335 34.41289672736166 C-114.98794920568824 34.291361343610376, -114.99297594634312 34.16982595985908, -115 34 M-115 34 C-115 34, -115 34, -115 34 M-115 34 C-115 34, -115 34, -115 34 M-115 34 C-115 12.149006500568714, -115 -9.701986998862573, -115 -34 M-115 34 C-115 8.192472871391502, -115 -17.615054257216997, -115 -34 M-115 -34 C-115 -34, -115 -34, -115 -34 M-115 -34 C-115 -34, -115 -34, -115 -34 M-115 -34 C-114.99527873026081 -34.114149777945904, -114.9905574605216 -34.22829955589181, -114.98292246503335 -34.41289672736166 M-115 -34 C-114.99468155215841 -34.128588213271144, -114.98936310431682 -34.25717642654228, -114.98292246503335 -34.41289672736166 M-114.98292246503335 -34.41289672736166 C-114.97194294684044 -34.50097959653997, -114.96096342864755 -34.58906246571828, -114.93180651701361 -34.82297295140367 M-114.98292246503335 -34.41289672736166 C-114.97007130698181 -34.51599477351959, -114.95722014893026 -34.61909281967751, -114.93180651701361 -34.82297295140367 M-114.93180651701361 -34.82297295140367 C-114.90102933409196 -34.96975606739714, -114.8702521511703 -35.11653918339061, -114.84700132969665 -35.227427435703994 M-114.93180651701361 -34.82297295140367 C-114.90121656646906 -34.96886311524505, -114.87062661592451 -35.11475327908643, -114.84700132969665 -35.227427435703994 M-114.84700132969665 -35.227427435703994 C-114.8109848618435 -35.34840461868305, -114.77496839399035 -35.4693818016621, -114.72908620850318 -35.62349734602342 M-114.84700132969665 -35.227427435703994 C-114.80503493227322 -35.36839007981353, -114.76306853484978 -35.509352723923065, -114.72908620850318 -35.62349734602342 M-114.72908620850318 -35.62349734602342 C-114.69138051076206 -35.72012876769458, -114.65367481302094 -35.81676018936574, -114.57886663327528 -36.008477123264846 M-114.72908620850318 -35.62349734602342 C-114.6950243823503 -35.710790325150015, -114.6609625561974 -35.79808330427661, -114.57886663327528 -36.008477123264846 M-114.57886663327528 -36.008477123264846 C-114.52594473592855 -36.11673059455363, -114.47302283858181 -36.22498406584241, -114.39736875603245 -36.379736965185366 M-114.57886663327528 -36.008477123264846 C-114.52391811806348 -36.12087610765632, -114.46896960285167 -36.2332750920478, -114.39736875603245 -36.379736965185366 M-114.39736875603245 -36.379736965185366 C-114.34419284411241 -36.46897765993386, -114.29101693219239 -36.55821835468237, -114.18583239131264 -36.734740790612136 M-114.39736875603245 -36.379736965185366 C-114.32284235615664 -36.50480840189198, -114.24831595628082 -36.62987983859858, -114.18583239131264 -36.734740790612136 M-114.18583239131264 -36.734740790612136 C-114.10231333645325 -36.85171650511885, -114.01879428159387 -36.968692219625574, -113.94570254698196 -37.07106356344834 M-114.18583239131264 -36.734740790612136 C-114.13316878525275 -36.80850076021103, -114.08050517919285 -36.88226072980992, -113.94570254698196 -37.07106356344834 M-113.94570254698196 -37.07106356344834 C-113.88107002321786 -37.14737504005656, -113.81643749945376 -37.22368651666477, -113.67861955336566 -37.386407858128706 M-113.94570254698196 -37.07106356344834 C-113.88079996828581 -37.14769389331231, -113.81589738958968 -37.224324223176275, -113.67861955336566 -37.386407858128706 M-113.67861955336566 -37.386407858128706 C-113.57992741981239 -37.48509999168197, -113.48123528625914 -37.583792125235234, -113.3864078581287 -37.67861955336566 M-113.67861955336566 -37.386407858128706 C-113.59137883588194 -37.47364857561243, -113.5041381183982 -37.56088929309616, -113.3864078581287 -37.67861955336566 M-113.3864078581287 -37.67861955336566 C-113.26344117024537 -37.78276702541126, -113.14047448236204 -37.88691449745686, -113.07106356344833 -37.94570254698197 M-113.3864078581287 -37.67861955336566 C-113.3213349029149 -37.73373353505218, -113.25626194770109 -37.788847516738706, -113.07106356344833 -37.94570254698197 M-113.07106356344833 -37.94570254698197 C-112.95006770551193 -38.03209192908033, -112.8290718475755 -38.1184813111787, -112.73474079061214 -38.185832391312644 M-113.07106356344833 -37.94570254698197 C-112.99013891059977 -38.003481638558696, -112.9092142577512 -38.061260730135416, -112.73474079061214 -38.185832391312644 M-112.73474079061214 -38.185832391312644 C-112.63954688941774 -38.242555644302804, -112.54435298822337 -38.299278897292965, -112.37973696518537 -38.39736875603245 M-112.73474079061214 -38.185832391312644 C-112.60969074224654 -38.26034604650353, -112.48464069388093 -38.33485970169441, -112.37973696518537 -38.39736875603245 M-112.37973696518537 -38.39736875603245 C-112.29071015532152 -38.44089131135221, -112.20168334545767 -38.48441386667197, -112.00847712326485 -38.57886663327528 M-112.37973696518537 -38.39736875603245 C-112.28808483358846 -38.4421747529417, -112.19643270199155 -38.48698074985096, -112.00847712326485 -38.57886663327528 M-112.00847712326485 -38.57886663327528 C-111.88274021608174 -38.6279293267052, -111.75700330889863 -38.676992020135124, -111.62349734602341 -38.729086208503176 M-112.00847712326485 -38.57886663327528 C-111.90164591873712 -38.62055229863733, -111.79481471420938 -38.662237963999374, -111.62349734602341 -38.729086208503176 M-111.62349734602341 -38.729086208503176 C-111.46716198642376 -38.77562926162012, -111.31082662682412 -38.82217231473705, -111.227427435704 -38.84700132969665 M-111.62349734602341 -38.729086208503176 C-111.49083775508892 -38.76858067989562, -111.35817816415442 -38.808075151288065, -111.227427435704 -38.84700132969665 M-111.227427435704 -38.84700132969665 C-111.10797339749435 -38.872048207601004, -110.98851935928468 -38.897095085505356, -110.82297295140367 -38.93180651701361 M-111.227427435704 -38.84700132969665 C-111.10116351756658 -38.873476089267044, -110.97489959942916 -38.899950848837435, -110.82297295140367 -38.93180651701361 M-110.82297295140367 -38.93180651701361 C-110.68435158629919 -38.94908565215406, -110.5457302211947 -38.9663647872945, -110.41289672736167 -38.98292246503335 M-110.82297295140367 -38.93180651701361 C-110.69818712634117 -38.947361053886354, -110.57340130127866 -38.96291559075909, -110.41289672736167 -38.98292246503335 M-110.41289672736167 -38.98292246503335 C-110.25366763515018 -38.98950822900228, -110.09443854293869 -38.99609399297122, -110 -39 M-110.41289672736167 -38.98292246503335 C-110.2739428361319 -38.98866964048662, -110.13498894490212 -38.99441681593989, -110 -39 M-110 -39 C-110 -39, -110 -39, -110 -39 M-110 -39 C-110 -39, -110 -39, -110 -39" stroke="#9370DB" stroke-width="1.3" fill="none" stroke-dasharray="0 0" style=""/></g><g class="label" style="" transform="translate(-100, -24)"><rect/><foreignObject width="200" height="48"><div xmlns="http://www.w3.org/1999/xhtml" style="display: table; white-space: break-spaces; line-height: 1.5; max-width: 200px; text-align: center; width: 200px;"><span class="nodeLabel "><p>Unintentional RF Noise / Heat / Sound</p></span></div></foreignObject></g></g><g class="node default  " id="flowchart-C-2" transform="translate(443.09375, 60)"><rect class="basic label-container" style="" x="-95.359375" y="-27" width="190.71875" height="54"/><g class="label" style="" transform="translate(-65.359375, -12)"><rect/><foreignObject width="130.71875" height="24"><div xmlns="http://www.w3.org/1999/xhtml" style="display: table-cell; white-space: nowrap; line-height: 1.5; max-width: 200px; text-align: center;"><span class="nodeLabel "><p>Cables &amp; Monitors</p></span></div></foreignObject></g></g><g class="node default  " id="flowchart-D-3" transform="translate(443.09375, 200)"><g class="basic label-container outer-path"><path d="M-77.5859375 -27 C-25.71819926039342 -27, 26.149538979213162 -27, 77.5859375 -27 C77.5859375 -27, 77.5859375 -27, 77.5859375 -27 C77.71920230670435 -26.99448812682324, 77.8524671134087 -26.988976253646474, 77.99883422736166 -26.982922465033347 C78.09893442167508 -26.970444988824518, 78.19903461598851 -26.95796751261569, 78.40891045140367 -26.931806517013612 C78.53395339916986 -26.905587768008218, 78.65899634693605 -26.879369019002826, 78.813364935704 -26.847001329696653 C78.92885087900532 -26.81261967472686, 79.04433682230665 -26.77823801975707, 79.20943484602341 -26.729086208503173 C79.36242129167744 -26.669390712167118, 79.51540773733146 -26.609695215831064, 79.59441462326485 -26.578866633275286 C79.67196369058827 -26.540955204372683, 79.74951275791169 -26.50304377547008, 79.96567446518537 -26.397368756032446 C80.07536694460998 -26.33200622562397, 80.18505942403458 -26.266643695215496, 80.32067829061214 -26.185832391312644 C80.45281307091305 -26.09148997150933, 80.58494785121397 -25.997147551706014, 80.65700106344833 -25.94570254698197 C80.78001887338435 -25.8415117767664, 80.90303668332037 -25.73732100655083, 80.9723453581287 -25.678619553365657 C81.05795418624173 -25.59301072525264, 81.14356301435474 -25.507401897139623, 81.26455705336566 -25.386407858128706 C81.3350300165292 -25.303200587752038, 81.40550297969274 -25.219993317375373, 81.53164004698196 -25.07106356344834 C81.59082273209725 -24.9881730555344, 81.65000541721254 -24.905282547620455, 81.77176989131264 -24.734740790612136 C81.82516601263433 -24.645130536804214, 81.878562133956 -24.55552028299629, 81.98330625603245 -24.37973696518537 C82.02342993808854 -24.297662661707523, 82.06355362014463 -24.215588358229674, 82.16480413327528 -24.008477123264846 C82.2040123159537 -23.907995162703582, 82.24322049863213 -23.80751320214232, 82.31502370850318 -23.623497346023417 C82.3458925940015 -23.519810587385248, 82.3767614794998 -23.41612382874708, 82.43293882969665 -23.227427435703994 C82.46041928526954 -23.09636713339571, 82.48789974084244 -22.965306831087428, 82.51774401701361 -22.82297295140367 C82.53661568808134 -22.671575512588163, 82.55548735914907 -22.52017807377265, 82.56885996503335 -22.412896727361662 C82.57491823489104 -22.266421266904388, 82.58097650474873 -22.119945806447113, 82.5859375 -22 C82.5859375 -22, 82.5859375 -22, 82.5859375 -22 C82.5859375 -8.900329126937677, 82.5859375 4.199341746124645, 82.5859375 22 C82.5859375 22, 82.5859375 22, 82.5859375 22 C82.57955335393419 22.15435442074773, 82.57316920786836 22.308708841495456, 82.56885996503335 22.412896727361662 C82.5583247434836 22.49741523948835, 82.54778952193382 22.581933751615043, 82.51774401701361 22.82297295140367 C82.48426254318804 22.98265342211737, 82.45078106936248 23.142333892831065, 82.43293882969665 23.227427435703994 C82.3967919664618 23.348842609049456, 82.36064510322694 23.47025778239492, 82.31502370850318 23.623497346023417 C82.26201229972293 23.75935394335778, 82.20900089094268 23.89521054069214, 82.16480413327528 24.008477123264846 C82.1105668120589 24.11942133708638, 82.05632949084254 24.230365550907912, 81.98330625603245 24.379736965185366 C81.93830431420297 24.455259968155847, 81.89330237237348 24.530782971126328, 81.77176989131264 24.734740790612133 C81.68012229946075 24.863101229529278, 81.58847470760885 24.99146166844642, 81.53164004698196 25.07106356344834 C81.43572624538534 25.184308775002513, 81.33981244378872 25.297553986556682, 81.26455705336566 25.386407858128706 C81.16786073473895 25.483104176755422, 81.07116441611223 25.579800495382134, 80.9723453581287 25.678619553365657 C80.90542895420437 25.735294856466556, 80.83851255028004 25.791970159567455, 80.65700106344833 25.94570254698197 C80.56427524942681 26.011907505684746, 80.47154943540528 26.078112464387523, 80.32067829061214 26.185832391312644 C80.23570256975566 26.236466930413215, 80.15072684889918 26.287101469513786, 79.96567446518537 26.397368756032446 C79.84992549465399 26.453954979675203, 79.73417652412262 26.51054120331796, 79.59441462326485 26.578866633275286 C79.45810725589519 26.632053933069116, 79.32179988852552 26.685241232862946, 79.20943484602341 26.729086208503173 C79.06881482944746 26.770950601290323, 78.9281948128715 26.812814994077474, 78.813364935704 26.847001329696653 C78.73183645703809 26.86409605400634, 78.65030797837217 26.88119077831602, 78.40891045140367 26.931806517013612 C78.29229818511416 26.946342220847804, 78.17568591882467 26.96087792468199, 77.99883422736166 26.982922465033347 C77.87469946551667 26.988056716761452, 77.75056470367169 26.993190968489554, 77.5859375 27 C77.5859375 27, 77.5859375 27, 77.5859375 27 C15.919082398803184 27, -45.74777270239363 27, -77.5859375 27 C-77.5859375 27, -77.5859375 27, -77.5859375 27 C-77.70786930865938 26.99495686308963, -77.82980111731878 26.989913726179264, -77.99883422736166 26.982922465033347 C-78.10068630058423 26.970226617346224, -78.2025383738068 26.957530769659105, -78.40891045140367 26.931806517013612 C-78.51824213069312 26.90888207458133, -78.62757380998258 26.885957632149054, -78.813364935704 26.847001329696653 C-78.91576814332575 26.816514573892402, -79.01817135094751 26.786027818088147, -79.20943484602341 26.729086208503173 C-79.29882438828669 26.694206300875756, -79.38821393054998 26.65932639324834, -79.59441462326485 26.578866633275286 C-79.69286463800618 26.530737353799097, -79.79131465274752 26.482608074322908, -79.96567446518537 26.397368756032446 C-80.07667252552119 26.331228268261192, -80.18767058585699 26.265087780489942, -80.32067829061214 26.185832391312644 C-80.44543349658076 26.096758886310123, -80.57018870254937 26.007685381307606, -80.65700106344833 25.94570254698197 C-80.73399794641657 25.880489513642896, -80.81099482938478 25.81527648030382, -80.9723453581287 25.67861955336566 C-81.0390878993774 25.611877012116963, -81.10583044062611 25.545134470868263, -81.26455705336566 25.386407858128706 C-81.37003963829848 25.261864805438172, -81.4755222232313 25.13732175274764, -81.53164004698196 25.07106356344834 C-81.5838174459539 24.99798456924612, -81.63599484492583 24.924905575043905, -81.77176989131264 24.734740790612133 C-81.8189968942569 24.655483653283255, -81.86622389720114 24.576226515954378, -81.98330625603245 24.37973696518537 C-82.03034521046327 24.283517245972213, -82.07738416489407 24.187297526759053, -82.16480413327528 24.00847712326485 C-82.20885072400822 23.89559538556267, -82.25289731474113 23.782713647860497, -82.31502370850318 23.623497346023417 C-82.34226992167544 23.53197892922956, -82.3695161348477 23.440460512435706, -82.43293882969665 23.227427435703994 C-82.4647485543029 23.075719902610864, -82.49655827890915 22.924012369517737, -82.51774401701361 22.82297295140367 C-82.52935894926394 22.729792491209924, -82.54097388151428 22.636612031016178, -82.56885996503335 22.412896727361662 C-82.5732008531839 22.30794372830727, -82.57754174133446 22.202990729252875, -82.5859375 22 C-82.5859375 22, -82.5859375 22, -82.5859375 22 C-82.5859375 12.075726183732113, -82.5859375 2.151452367464227, -82.5859375 -22 C-82.5859375 -22, -82.5859375 -22, -82.5859375 -22 C-82.58206168491147 -22.09370856912561, -82.57818586982292 -22.18741713825122, -82.56885996503335 -22.41289672736166 C-82.55833084413027 -22.497366297225707, -82.54780172322718 -22.581835867089755, -82.51774401701361 -22.82297295140367 C-82.49898427489124 -22.912442264139845, -82.48022453276887 -23.00191157687602, -82.43293882969665 -23.227427435703994 C-82.39050021041211 -23.369976245084644, -82.34806159112759 -23.512525054465296, -82.31502370850318 -23.623497346023417 C-82.28355719626154 -23.70413910562747, -82.2520906840199 -23.78478086523152, -82.16480413327528 -24.008477123264846 C-82.09586215742718 -24.1495001889, -82.02692018157907 -24.290523254535152, -81.98330625603245 -24.379736965185366 C-81.89922755997324 -24.520839223312223, -81.81514886391405 -24.661941481439083, -81.77176989131264 -24.734740790612133 C-81.68312246342684 -24.85889923844878, -81.59447503554102 -24.983057686285427, -81.53164004698196 -25.07106356344834 C-81.42956212622227 -25.191586736745744, -81.32748420546255 -25.312109910043148, -81.26455705336566 -25.386407858128706 C-81.17672222013182 -25.474242691362548, -81.08888738689798 -25.56207752459639, -80.9723453581287 -25.678619553365657 C-80.90104647774572 -25.7390066246887, -80.82974759736274 -25.799393696011744, -80.65700106344833 -25.945702546981966 C-80.5513359219558 -26.021146007928152, -80.44567078046327 -26.09658946887434, -80.32067829061214 -26.185832391312644 C-80.19019709332899 -26.26358230880827, -80.05971589604586 -26.341332226303898, -79.96567446518537 -26.397368756032446 C-79.86721922003926 -26.445500592497723, -79.76876397489315 -26.493632428963004, -79.59441462326485 -26.578866633275286 C-79.49529667564362 -26.617542576452905, -79.39617872802238 -26.656218519630524, -79.20943484602341 -26.729086208503173 C-79.11836130772602 -26.756199975608567, -79.02728776942864 -26.783313742713965, -78.813364935704 -26.847001329696653 C-78.72647290630218 -26.86522067233176, -78.63958087690034 -26.883440014966865, -78.40891045140367 -26.931806517013612 C-78.30989245890864 -26.944149096906457, -78.21087446641359 -26.956491676799306, -77.99883422736167 -26.982922465033347 C-77.89269644441195 -26.98731235620829, -77.78655866146224 -26.991702247383227, -77.5859375 -27 C-77.5859375 -27, -77.5859375 -27, -77.5859375 -27" stroke="none" stroke-width="0" fill="#ECECFF" style=""/><path d="M-77.5859375 -27 C-45.98527489872991 -27, -14.384612297459832 -27, 77.5859375 -27 M-77.5859375 -27 C-38.772164057083145 -27, 0.04160938583370921 -27, 77.5859375 -27 M77.5859375 -27 C77.5859375 -27, 77.5859375 -27, 77.5859375 -27 M77.5859375 -27 C77.5859375 -27, 77.5859375 -27, 77.5859375 -27 M77.5859375 -27 C77.70162112478175 -26.9952152898864, 77.8173047495635 -26.990430579772802, 77.99883422736166 -26.982922465033347 M77.5859375 -27 C77.74499462223906 -26.993421348761736, 77.90405174447811 -26.986842697523475, 77.99883422736166 -26.982922465033347 M77.99883422736166 -26.982922465033347 C78.08709288636614 -26.97192103466146, 78.17535154537063 -26.960919604289572, 78.40891045140367 -26.931806517013612 M77.99883422736166 -26.982922465033347 C78.14487644185938 -26.964718321980694, 78.2909186563571 -26.94651417892804, 78.40891045140367 -26.931806517013612 M78.40891045140367 -26.931806517013612 C78.5150637143429 -26.909548518407313, 78.62121697728213 -26.887290519801017, 78.813364935704 -26.847001329696653 M78.40891045140367 -26.931806517013612 C78.55695508704773 -26.90076482123718, 78.70499972269178 -26.869723125460744, 78.813364935704 -26.847001329696653 M78.813364935704 -26.847001329696653 C78.90112634075842 -26.820873627380774, 78.98888774581285 -26.794745925064895, 79.20943484602341 -26.729086208503173 M78.813364935704 -26.847001329696653 C78.93241746596034 -26.811557855785075, 79.05146999621667 -26.7761143818735, 79.20943484602341 -26.729086208503173 M79.20943484602341 -26.729086208503173 C79.3131775742851 -26.688605670319784, 79.4169203025468 -26.6481251321364, 79.59441462326485 -26.578866633275286 M79.20943484602341 -26.729086208503173 C79.33816616496586 -26.678855091979013, 79.4668974839083 -26.628623975454854, 79.59441462326485 -26.578866633275286 M79.59441462326485 -26.578866633275286 C79.71839625493439 -26.51825570684511, 79.84237788660391 -26.45764478041493, 79.96567446518537 -26.397368756032446 M79.59441462326485 -26.578866633275286 C79.72415729902968 -26.515439304002857, 79.85389997479452 -26.45201197473043, 79.96567446518537 -26.397368756032446 M79.96567446518537 -26.397368756032446 C80.09300258314454 -26.321497666003154, 80.22033070110372 -26.24562657597386, 80.32067829061214 -26.185832391312644 M79.96567446518537 -26.397368756032446 C80.05767240363525 -26.342549883480835, 80.14967034208513 -26.287731010929225, 80.32067829061214 -26.185832391312644 M80.32067829061214 -26.185832391312644 C80.43937453436257 -26.10108490218466, 80.55807077811302 -26.016337413056675, 80.65700106344833 -25.94570254698197 M80.32067829061214 -26.185832391312644 C80.42880815587563 -26.10862915141826, 80.53693802113911 -26.031425911523876, 80.65700106344833 -25.94570254698197 M80.65700106344833 -25.94570254698197 C80.72616116558419 -25.88712692843153, 80.79532126772004 -25.828551309881096, 80.9723453581287 -25.678619553365657 M80.65700106344833 -25.94570254698197 C80.72187344830427 -25.89075843972322, 80.7867458331602 -25.835814332464476, 80.9723453581287 -25.678619553365657 M80.9723453581287 -25.678619553365657 C81.08563200375924 -25.565332907735115, 81.1989186493898 -25.452046262104574, 81.26455705336566 -25.386407858128706 M80.9723453581287 -25.678619553365657 C81.03612345305038 -25.614841458443983, 81.09990154797205 -25.55106336352231, 81.26455705336566 -25.386407858128706 M81.26455705336566 -25.386407858128706 C81.32762154308482 -25.31194775581896, 81.39068603280397 -25.237487653509216, 81.53164004698196 -25.07106356344834 M81.26455705336566 -25.386407858128706 C81.34774367773687 -25.288189596329282, 81.43093030210808 -25.189971334529858, 81.53164004698196 -25.07106356344834 M81.53164004698196 -25.07106356344834 C81.59208993650441 -24.986398225333033, 81.65253982602687 -24.90173288721773, 81.77176989131264 -24.734740790612136 M81.53164004698196 -25.07106356344834 C81.58749084659993 -24.992839651526886, 81.6433416462179 -24.91461573960543, 81.77176989131264 -24.734740790612136 M81.77176989131264 -24.734740790612136 C81.84040915846799 -24.619549237391894, 81.90904842562334 -24.50435768417165, 81.98330625603245 -24.37973696518537 M81.77176989131264 -24.734740790612136 C81.82188299372413 -24.65064015343023, 81.8719960961356 -24.566539516248326, 81.98330625603245 -24.37973696518537 M81.98330625603245 -24.37973696518537 C82.03951050755188 -24.264769331120725, 82.0957147590713 -24.149801697056077, 82.16480413327528 -24.008477123264846 M81.98330625603245 -24.37973696518537 C82.03922872646702 -24.265345723542563, 82.09515119690158 -24.15095448189976, 82.16480413327528 -24.008477123264846 M82.16480413327528 -24.008477123264846 C82.21063496627147 -23.891022764530998, 82.25646579926767 -23.77356840579715, 82.31502370850318 -23.623497346023417 M82.16480413327528 -24.008477123264846 C82.1957306616349 -23.92921922374892, 82.22665718999453 -23.849961324232993, 82.31502370850318 -23.623497346023417 M82.31502370850318 -23.623497346023417 C82.35963564012584 -23.473648509181068, 82.40424757174851 -23.323799672338716, 82.43293882969665 -23.227427435703994 M82.31502370850318 -23.623497346023417 C82.35063784991891 -23.503871553725872, 82.38625199133463 -23.384245761428325, 82.43293882969665 -23.227427435703994 M82.43293882969665 -23.227427435703994 C82.45087380892711 -23.141891597566158, 82.46880878815757 -23.056355759428317, 82.51774401701361 -22.82297295140367 M82.43293882969665 -23.227427435703994 C82.4574710914484 -23.11042771446714, 82.48200335320014 -22.993427993230288, 82.51774401701361 -22.82297295140367 M82.51774401701361 -22.82297295140367 C82.53230642976575 -22.706146413587515, 82.54686884251788 -22.589319875771356, 82.56885996503335 -22.412896727361662 M82.51774401701361 -22.82297295140367 C82.53573949666902 -22.678604733013888, 82.55373497632444 -22.534236514624105, 82.56885996503335 -22.412896727361662 M82.56885996503335 -22.412896727361662 C82.5749625329319 -22.265350239022744, 82.58106510083046 -22.11780375068383, 82.5859375 -22 M82.56885996503335 -22.412896727361662 C82.57530108484413 -22.257164808463195, 82.5817422046549 -22.101432889564727, 82.5859375 -22 M82.5859375 -22 C82.5859375 -22, 82.5859375 -22, 82.5859375 -22 M82.5859375 -22 C82.5859375 -22, 82.5859375 -22, 82.5859375 -22 M82.5859375 -22 C82.5859375 -12.79893043294281, 82.5859375 -3.5978608658856217, 82.5859375 22 M82.5859375 -22 C82.5859375 -11.830448757001227, 82.5859375 -1.6608975140024533, 82.5859375 22 M82.5859375 22 C82.5859375 22, 82.5859375 22, 82.5859375 22 M82.5859375 22 C82.5859375 22, 82.5859375 22, 82.5859375 22 M82.5859375 22 C82.58195631922136 22.09625607663788, 82.57797513844272 22.192512153275757, 82.56885996503335 22.412896727361662 M82.5859375 22 C82.58054101081956 22.13047507887983, 82.57514452163912 22.260950157759662, 82.56885996503335 22.412896727361662 M82.56885996503335 22.412896727361662 C82.54927685376009 22.57000167478107, 82.52969374248683 22.727106622200484, 82.51774401701361 22.82297295140367 M82.56885996503335 22.412896727361662 C82.55047315093867 22.56040441504449, 82.532086336844 22.70791210272732, 82.51774401701361 22.82297295140367 M82.51774401701361 22.82297295140367 C82.48815600750083 22.964084639350776, 82.45856799798804 23.105196327297886, 82.43293882969665 23.227427435703994 M82.51774401701361 22.82297295140367 C82.48437541594181 22.982115107270594, 82.45100681487001 23.14125726313752, 82.43293882969665 23.227427435703994 M82.43293882969665 23.227427435703994 C82.40885037199966 23.30833913882752, 82.38476191430267 23.389250841951043, 82.31502370850318 23.623497346023417 M82.43293882969665 23.227427435703994 C82.39075907241347 23.36910674294935, 82.3485793151303 23.510786050194703, 82.31502370850318 23.623497346023417 M82.31502370850318 23.623497346023417 C82.28053073737763 23.71189525501871, 82.24603776625209 23.800293164014, 82.16480413327528 24.008477123264846 M82.31502370850318 23.623497346023417 C82.262897227609 23.75708606755037, 82.21077074671484 23.89067478907733, 82.16480413327528 24.008477123264846 M82.16480413327528 24.008477123264846 C82.11669749057538 24.10688083374021, 82.06859084787546 24.205284544215573, 81.98330625603245 24.379736965185366 M82.16480413327528 24.008477123264846 C82.10847293035131 24.123704440578127, 82.05214172742734 24.238931757891407, 81.98330625603245 24.379736965185366 M81.98330625603245 24.379736965185366 C81.93556447667936 24.459858008796367, 81.88782269732626 24.53997905240737, 81.77176989131264 24.734740790612133 M81.98330625603245 24.379736965185366 C81.940424573356 24.451701714182736, 81.89754289067955 24.523666463180106, 81.77176989131264 24.734740790612133 M81.77176989131264 24.734740790612133 C81.67970249407894 24.86368920354997, 81.58763509684525 24.992637616487805, 81.53164004698196 25.07106356344834 M81.77176989131264 24.734740790612133 C81.69818697164604 24.837800081907794, 81.62460405197943 24.940859373203455, 81.53164004698196 25.07106356344834 M81.53164004698196 25.07106356344834 C81.43536365833569 25.184736880723072, 81.33908726968941 25.298410197997807, 81.26455705336566 25.386407858128706 M81.53164004698196 25.07106356344834 C81.44725760886612 25.17069371986809, 81.3628751707503 25.27032387628784, 81.26455705336566 25.386407858128706 M81.26455705336566 25.386407858128706 C81.15030551505899 25.500659396435378, 81.03605397675231 25.614910934742053, 80.9723453581287 25.678619553365657 M81.26455705336566 25.386407858128706 C81.19957085979605 25.451394051698312, 81.13458466622644 25.516380245267918, 80.9723453581287 25.678619553365657 M80.9723453581287 25.678619553365657 C80.85712672500988 25.776204757768824, 80.74190809189105 25.87378996217199, 80.65700106344833 25.94570254698197 M80.9723453581287 25.678619553365657 C80.85418812925288 25.778693621417375, 80.73603090037705 25.878767689469093, 80.65700106344833 25.94570254698197 M80.65700106344833 25.94570254698197 C80.58815659632955 25.99485655172822, 80.51931212921076 26.044010556474465, 80.32067829061214 26.185832391312644 M80.65700106344833 25.94570254698197 C80.53241700208935 26.034653857081885, 80.40783294073036 26.123605167181804, 80.32067829061214 26.185832391312644 M80.32067829061214 26.185832391312644 C80.22576766915344 26.242386846218963, 80.13085704769476 26.29894130112528, 79.96567446518537 26.397368756032446 M80.32067829061214 26.185832391312644 C80.23221452054291 26.23854535660916, 80.1437507504737 26.291258321905676, 79.96567446518537 26.397368756032446 M79.96567446518537 26.397368756032446 C79.88611250454983 26.436264228513203, 79.80655054391428 26.475159700993963, 79.59441462326485 26.578866633275286 M79.96567446518537 26.397368756032446 C79.82807607362953 26.464636510740917, 79.69047768207369 26.531904265449384, 79.59441462326485 26.578866633275286 M79.59441462326485 26.578866633275286 C79.45723878458995 26.632392811623998, 79.32006294591505 26.68591898997271, 79.20943484602341 26.729086208503173 M79.59441462326485 26.578866633275286 C79.50281120952353 26.614610396234074, 79.41120779578222 26.650354159192865, 79.20943484602341 26.729086208503173 M79.20943484602341 26.729086208503173 C79.10177545802459 26.76113779700496, 78.99411607002575 26.793189385506746, 78.813364935704 26.847001329696653 M79.20943484602341 26.729086208503173 C79.09050389469854 26.76449348679861, 78.97157294337367 26.799900765094044, 78.813364935704 26.847001329696653 M78.813364935704 26.847001329696653 C78.6589261912557 26.87938372910209, 78.5044874468074 26.91176612850753, 78.40891045140367 26.931806517013612 M78.813364935704 26.847001329696653 C78.68920066377903 26.873035839752553, 78.56503639185406 26.89907034980845, 78.40891045140367 26.931806517013612 M78.40891045140367 26.931806517013612 C78.28216221177001 26.947605668607544, 78.15541397213634 26.96340482020148, 77.99883422736166 26.982922465033347 M78.40891045140367 26.931806517013612 C78.2540824217988 26.951105810777275, 78.09925439219393 26.970405104540937, 77.99883422736166 26.982922465033347 M77.99883422736166 26.982922465033347 C77.87001372038475 26.98825052061368, 77.74119321340783 26.99357857619401, 77.5859375 27 M77.99883422736166 26.982922465033347 C77.8617722694619 26.988591389545267, 77.72471031156212 26.994260314057183, 77.5859375 27 M77.5859375 27 C77.5859375 27, 77.5859375 27, 77.5859375 27 M77.5859375 27 C77.5859375 27, 77.5859375 27, 77.5859375 27 M77.5859375 27 C17.406255912726827 27, -42.773425674546345 27, -77.5859375 27 M77.5859375 27 C31.682266819900406 27, -14.221403860199189 27, -77.5859375 27 M-77.5859375 27 C-77.5859375 27, -77.5859375 27, -77.5859375 27 M-77.5859375 27 C-77.5859375 27, -77.5859375 27, -77.5859375 27 M-77.5859375 27 C-77.68129542172113 26.996055967183498, -77.77665334344228 26.992111934367, -77.99883422736166 26.982922465033347 M-77.5859375 27 C-77.72980129052398 26.99404974960977, -77.87366508104795 26.98809949921954, -77.99883422736166 26.982922465033347 M-77.99883422736166 26.982922465033347 C-78.15130044002113 26.96391757144491, -78.30376665268061 26.94491267785647, -78.40891045140367 26.931806517013612 M-77.99883422736166 26.982922465033347 C-78.14553930833803 26.964635695760297, -78.2922443893144 26.94634892648725, -78.40891045140367 26.931806517013612 M-78.40891045140367 26.931806517013612 C-78.57039350812762 26.89794708064791, -78.73187656485158 26.864087644282208, -78.813364935704 26.847001329696653 M-78.40891045140367 26.931806517013612 C-78.56997498784098 26.898034835123834, -78.73103952427827 26.864263153234056, -78.813364935704 26.847001329696653 M-78.813364935704 26.847001329696653 C-78.95158172607809 26.805852408348926, -79.08979851645218 26.7647034870012, -79.20943484602341 26.729086208503173 M-78.813364935704 26.847001329696653 C-78.97058078817186 26.800196142495402, -79.12779664063972 26.753390955294147, -79.20943484602341 26.729086208503173 M-79.20943484602341 26.729086208503173 C-79.31264713915962 26.688812646748023, -79.41585943229582 26.648539084992873, -79.59441462326485 26.578866633275286 M-79.20943484602341 26.729086208503173 C-79.3131356539648 26.688622027679525, -79.4168364619062 26.648157846855877, -79.59441462326485 26.578866633275286 M-79.59441462326485 26.578866633275286 C-79.72960055469117 26.512778258459285, -79.8647864861175 26.446689883643284, -79.96567446518537 26.397368756032446 M-79.59441462326485 26.578866633275286 C-79.68772073340898 26.533252055524724, -79.7810268435531 26.487637477774165, -79.96567446518537 26.397368756032446 M-79.96567446518537 26.397368756032446 C-80.10548660060138 26.31405880624793, -80.24529873601739 26.230748856463414, -80.32067829061214 26.185832391312644 M-79.96567446518537 26.397368756032446 C-80.06706943201972 26.33695046994993, -80.16846439885406 26.276532183867413, -80.32067829061214 26.185832391312644 M-80.32067829061214 26.185832391312644 C-80.42866629209016 26.108730440214238, -80.53665429356818 26.03162848911583, -80.65700106344833 25.94570254698197 M-80.32067829061214 26.185832391312644 C-80.45175047118785 26.092248653130703, -80.58282265176355 25.998664914948762, -80.65700106344833 25.94570254698197 M-80.65700106344833 25.94570254698197 C-80.76542849166096 25.853869199730525, -80.87385591987358 25.76203585247908, -80.9723453581287 25.67861955336566 M-80.65700106344833 25.94570254698197 C-80.74204279996381 25.873675870254225, -80.82708453647929 25.801649193526476, -80.9723453581287 25.67861955336566 M-80.9723453581287 25.67861955336566 C-81.0465337300795 25.60443118141486, -81.12072210203031 25.53024280946406, -81.26455705336566 25.386407858128706 M-80.9723453581287 25.67861955336566 C-81.0810704068242 25.569894504670167, -81.1897954555197 25.461169455974673, -81.26455705336566 25.386407858128706 M-81.26455705336566 25.386407858128706 C-81.33676829751418 25.3011482032713, -81.40897954166272 25.215888548413897, -81.53164004698196 25.07106356344834 M-81.26455705336566 25.386407858128706 C-81.34821419763581 25.28763405453437, -81.43187134190596 25.188860250940035, -81.53164004698196 25.07106356344834 M-81.53164004698196 25.07106356344834 C-81.59936401250937 24.976210247996743, -81.66708797803678 24.88135693254515, -81.77176989131264 24.734740790612133 M-81.53164004698196 25.07106356344834 C-81.60935833617273 24.96221232676187, -81.68707662536349 24.853361090075396, -81.77176989131264 24.734740790612133 M-81.77176989131264 24.734740790612133 C-81.82606272492022 24.64362565941717, -81.88035555852781 24.552510528222214, -81.98330625603245 24.37973696518537 M-81.77176989131264 24.734740790612133 C-81.8461498688978 24.609915082215085, -81.92052984648295 24.485089373818038, -81.98330625603245 24.37973696518537 M-81.98330625603245 24.37973696518537 C-82.03101707653519 24.282142921955614, -82.07872789703794 24.184548878725856, -82.16480413327528 24.00847712326485 M-81.98330625603245 24.37973696518537 C-82.05385050268521 24.23543640223352, -82.12439474933797 24.091135839281677, -82.16480413327528 24.00847712326485 M-82.16480413327528 24.00847712326485 C-82.22242923188809 23.860796652235578, -82.28005433050089 23.713116181206306, -82.31502370850318 23.623497346023417 M-82.16480413327528 24.00847712326485 C-82.22418436078945 23.856298642356023, -82.28356458830362 23.704120161447197, -82.31502370850318 23.623497346023417 M-82.31502370850318 23.623497346023417 C-82.34673401986613 23.516984287726835, -82.3784443312291 23.410471229430254, -82.43293882969665 23.227427435703994 M-82.31502370850318 23.623497346023417 C-82.33894134869456 23.543159408787115, -82.36285898888593 23.462821471550814, -82.43293882969665 23.227427435703994 M-82.43293882969665 23.227427435703994 C-82.46063522905304 23.09533725026764, -82.48833162840943 22.963247064831283, -82.51774401701361 22.82297295140367 M-82.43293882969665 23.227427435703994 C-82.45448472611307 23.124670343837455, -82.47603062252948 23.02191325197091, -82.51774401701361 22.82297295140367 M-82.51774401701361 22.82297295140367 C-82.52849387956174 22.736732488035905, -82.53924374210986 22.65049202466814, -82.56885996503335 22.412896727361662 M-82.51774401701361 22.82297295140367 C-82.52861752631433 22.73574053551648, -82.53949103561506 22.64850811962929, -82.56885996503335 22.412896727361662 M-82.56885996503335 22.412896727361662 C-82.57555148917793 22.2511105898568, -82.58224301332251 22.08932445235194, -82.5859375 22 M-82.56885996503335 22.412896727361662 C-82.57373854081474 22.294943639971873, -82.57861711659613 22.176990552582083, -82.5859375 22 M-82.5859375 22 C-82.5859375 22, -82.5859375 22, -82.5859375 22 M-82.5859375 22 C-82.5859375 22, -82.5859375 22, -82.5859375 22 M-82.5859375 22 C-82.5859375 11.473552901398744, -82.5859375 0.9471058027974877, -82.5859375 -22 M-82.5859375 22 C-82.5859375 12.013795118483232, -82.5859375 2.0275902369664642, -82.5859375 -22 M-82.5859375 -22 C-82.5859375 -22, -82.5859375 -22, -82.5859375 -22 M-82.5859375 -22 C-82.5859375 -22, -82.5859375 -22, -82.5859375 -22 M-82.5859375 -22 C-82.579564361076 -22.15408829259504, -82.57319122215199 -22.30817658519008, -82.56885996503335 -22.41289672736166 M-82.5859375 -22 C-82.58005158715979 -22.1423082519818, -82.57416567431957 -22.2846165039636, -82.56885996503335 -22.41289672736166 M-82.56885996503335 -22.41289672736166 C-82.5495689492125 -22.567658347408244, -82.53027793339164 -22.722419967454826, -82.51774401701361 -22.82297295140367 M-82.56885996503335 -22.41289672736166 C-82.55024335377395 -22.56224795619474, -82.53162674251453 -22.71159918502782, -82.51774401701361 -22.82297295140367 M-82.51774401701361 -22.82297295140367 C-82.48762702772221 -22.966607459597203, -82.45751003843081 -23.110241967790735, -82.43293882969665 -23.227427435703994 M-82.51774401701361 -22.82297295140367 C-82.49933370800659 -22.910775741195444, -82.48092339899958 -22.998578530987213, -82.43293882969665 -23.227427435703994 M-82.43293882969665 -23.227427435703994 C-82.39231524171778 -23.363879662397167, -82.35169165373891 -23.50033188909034, -82.31502370850318 -23.623497346023417 M-82.43293882969665 -23.227427435703994 C-82.39966612638202 -23.3391884760568, -82.3663934230674 -23.450949516409608, -82.31502370850318 -23.623497346023417 M-82.31502370850318 -23.623497346023417 C-82.27314415957491 -23.730825431546982, -82.23126461064666 -23.83815351707055, -82.16480413327528 -24.008477123264846 M-82.31502370850318 -23.623497346023417 C-82.27686749847975 -23.72128333172409, -82.23871128845632 -23.819069317424766, -82.16480413327528 -24.008477123264846 M-82.16480413327528 -24.008477123264846 C-82.0932845954028 -24.15477267629349, -82.02176505753032 -24.301068229322137, -81.98330625603245 -24.379736965185366 M-82.16480413327528 -24.008477123264846 C-82.10542798778597 -24.129932970149028, -82.04605184229666 -24.251388817033213, -81.98330625603245 -24.379736965185366 M-81.98330625603245 -24.379736965185366 C-81.93143267259104 -24.466792070744585, -81.87955908914962 -24.553847176303805, -81.77176989131264 -24.734740790612133 M-81.98330625603245 -24.379736965185366 C-81.91671660216927 -24.491488823484442, -81.85012694830611 -24.60324068178352, -81.77176989131264 -24.734740790612133 M-81.77176989131264 -24.734740790612133 C-81.71928276332216 -24.80825358729584, -81.66679563533165 -24.881766383979546, -81.53164004698196 -25.07106356344834 M-81.77176989131264 -24.734740790612133 C-81.71033443533881 -24.820786500428703, -81.64889897936497 -24.906832210245277, -81.53164004698196 -25.07106356344834 M-81.53164004698196 -25.07106356344834 C-81.46501284812513 -25.14973014848828, -81.39838564926828 -25.228396733528225, -81.26455705336566 -25.386407858128706 M-81.53164004698196 -25.07106356344834 C-81.42667136055533 -25.194999857319175, -81.32170267412869 -25.31893615119001, -81.26455705336566 -25.386407858128706 M-81.26455705336566 -25.386407858128706 C-81.17756754082832 -25.473397370666042, -81.09057802829099 -25.560386883203382, -80.9723453581287 -25.678619553365657 M-81.26455705336566 -25.386407858128706 C-81.15196959133843 -25.498995320155935, -81.0393821293112 -25.611582782183163, -80.9723453581287 -25.678619553365657 M-80.9723453581287 -25.678619553365657 C-80.8653458360215 -25.769243525836355, -80.7583463139143 -25.859867498307054, -80.65700106344833 -25.945702546981966 M-80.9723453581287 -25.678619553365657 C-80.85525124905799 -25.77779320487295, -80.73815713998725 -25.876966856380243, -80.65700106344833 -25.945702546981966 M-80.65700106344833 -25.945702546981966 C-80.54725774539429 -26.02405777002684, -80.43751442734025 -26.10241299307171, -80.32067829061214 -26.185832391312644 M-80.65700106344833 -25.945702546981966 C-80.56144614336208 -26.013927448590156, -80.46589122327582 -26.082152350198346, -80.32067829061214 -26.185832391312644 M-80.32067829061214 -26.185832391312644 C-80.21708730515523 -26.247559220467096, -80.11349631969833 -26.309286049621548, -79.96567446518537 -26.397368756032446 M-80.32067829061214 -26.185832391312644 C-80.22012562125096 -26.24574877704163, -80.11957295188978 -26.30566516277062, -79.96567446518537 -26.397368756032446 M-79.96567446518537 -26.397368756032446 C-79.86038272235088 -26.44884275256491, -79.75509097951637 -26.50031674909738, -79.59441462326485 -26.578866633275286 M-79.96567446518537 -26.397368756032446 C-79.83097574833742 -26.463218946154736, -79.69627703148946 -26.52906913627703, -79.59441462326485 -26.578866633275286 M-79.59441462326485 -26.578866633275286 C-79.49597385964884 -26.617278338434105, -79.39753309603283 -26.655690043592923, -79.20943484602341 -26.729086208503173 M-79.59441462326485 -26.578866633275286 C-79.47795269242955 -26.62431021970379, -79.36149076159427 -26.669753806132295, -79.20943484602341 -26.729086208503173 M-79.20943484602341 -26.729086208503173 C-79.07334012996323 -26.769603360955088, -78.93724541390304 -26.810120513407007, -78.813364935704 -26.847001329696653 M-79.20943484602341 -26.729086208503173 C-79.10102929969516 -26.7613599379643, -78.9926237533669 -26.79363366742543, -78.813364935704 -26.847001329696653 M-78.813364935704 -26.847001329696653 C-78.69494332206307 -26.871831730933444, -78.57652170842212 -26.896662132170235, -78.40891045140367 -26.931806517013612 M-78.813364935704 -26.847001329696653 C-78.69327655753048 -26.87218121470451, -78.57318817935695 -26.897361099712374, -78.40891045140367 -26.931806517013612 M-78.40891045140367 -26.931806517013612 C-78.27178161119667 -26.948899609119604, -78.13465277098969 -26.965992701225595, -77.99883422736167 -26.982922465033347 M-78.40891045140367 -26.931806517013612 C-78.24823468290434 -26.951834730670306, -78.087558914405 -26.971862944326997, -77.99883422736167 -26.982922465033347 M-77.99883422736167 -26.982922465033347 C-77.84663065365935 -26.989217651407333, -77.69442707995704 -26.99551283778132, -77.5859375 -27 M-77.99883422736167 -26.982922465033347 C-77.84296538540161 -26.989369248023838, -77.68709654344157 -26.99581603101433, -77.5859375 -27 M-77.5859375 -27 C-77.5859375 -27, -77.5859375 -27, -77.5859375 -27 M-77.5859375 -27 C-77.5859375 -27, -77.5859375 -27, -77.5859375 -27" stroke="#9370DB" stroke-width="1.3" fill="none" stroke-dasharray="0 0" style=""/></g><g class="label" style="" transform="translate(-67.5859375, -12)"><rect/><foreignObject width="135.171875" height="24"><div xmlns="http://www.w3.org/1999/xhtml" style="display: table-cell; white-space: nowrap; line-height: 1.5; max-width: 200px; text-align: center;"><span class="nodeLabel "><p>EM Field Radiation</p></span></div></foreignObject></g></g><g class="node default  " id="flowchart-E-5" transform="translate(306.73046875, 366)"><rect class="basic label-container" style="" x="-117.1640625" y="-27" width="234.328125" height="54"/><g class="label" style="" transform="translate(-87.1640625, -12)"><rect/><foreignObject width="174.328125" height="24"><div xmlns="http://www.w3.org/1999/xhtml" style="display: table-cell; white-space: nowrap; line-height: 1.5; max-width: 200px; text-align: center;"><span class="nodeLabel "><p>Free-Space Propagation</p></span></div></foreignObject></g></g><g class="node default  " id="flowchart-F-9" transform="translate(306.73046875, 532)"><rect class="basic label-container" style="" x="-130" y="-39" width="260" height="78"/><g class="label" style="" transform="translate(-100, -24)"><rect/><foreignObject width="200" height="48"><div xmlns="http://www.w3.org/1999/xhtml" style="display: table; white-space: break-spaces; line-height: 1.5; max-width: 200px; text-align: center; width: 200px;"><span class="nodeLabel "><p>Antenna / High-Speed Photodiode / Microphone</p></span></div></foreignObject></g></g><g class="node default  " id="flowchart-G-11" transform="translate(306.73046875, 660)"><rect class="basic label-container" style="" x="-130" y="-39" width="260" height="78"/><g class="label" style="" transform="translate(-100, -24)"><rect/><foreignObject width="200" height="48"><div xmlns="http://www.w3.org/1999/xhtml" style="display: table; white-space: break-spaces; line-height: 1.5; max-width: 200px; text-align: center; width: 200px;"><span class="nodeLabel "><p>Signal Amplification &amp; Filtering</p></span></div></foreignObject></g></g><g class="node default  " id="flowchart-H-13" transform="translate(306.73046875, 788)"><rect class="basic label-container" style="" x="-130" y="-39" width="260" height="78"/><g class="label" style="" transform="translate(-100, -24)"><rect/><foreignObject width="200" height="48"><div xmlns="http://www.w3.org/1999/xhtml" style="display: table; white-space: break-spaces; line-height: 1.5; max-width: 200px; text-align: center; width: 200px;"><span class="nodeLabel "><p>Digital Signal Processing DSP</p></span></div></foreignObject></g></g><g class="node default  " id="flowchart-I-15" transform="translate(306.73046875, 916)"><rect class="basic label-container" style="" x="-130" y="-39" width="260" height="78"/><g class="label" style="" transform="translate(-100, -24)"><rect/><foreignObject width="200" height="48"><div xmlns="http://www.w3.org/1999/xhtml" style="display: table; white-space: break-spaces; line-height: 1.5; max-width: 200px; text-align: center; width: 200px;"><span class="nodeLabel "><p>Data Reconstruction &amp; Visualization</p></span></div></foreignObject></g></g><g class="node default  " id="flowchart-Target-16" transform="translate(660.6875, 60)"><rect class="basic label-container" style="System fill:#1e1b4b !important;stroke:#4338ca !important;stroke-width:2px !important" x="-52.234375" y="-27" width="104.46875" height="54"/><g class="label" style="color:#fff !important" transform="translate(-22.234375, -12)"><rect/><foreignObject width="44.46875" height="24"><div style="color: rgb(255, 255, 255) !important; display: table-cell; white-space: nowrap; line-height: 1.5; max-width: 200px; text-align: center;" xmlns="http://www.w3.org/1999/xhtml"><span style="color:#fff !important" class="nodeLabel "><p>Target</p></span></div></foreignObject></g></g></g></g></g></svg>